[2026-03-24T21:47:23] SOURCE: D:\apps\ErsatzTV-HLS-Copy-Prep\source\01.mp4
[2026-03-24T21:47:23] TARGET: D:\apps\ErsatzTV-HLS-Copy-Prep\target\01.mp4
[2026-03-24T21:47:23] FPS: 25.000000
[2026-03-24T21:47:23] CMD: ["D:\\apps\\ErsatzTV-HLS-Copy-Prep\\bin\\ffmpeg.exe", "-y", "-hide_banner", "-loglevel", "info", "-stats_period", "5", "-progress", "pipe:1", "-i", "D:\\apps\\ErsatzTV-HLS-Copy-Prep\\source\\01.mp4", "-map", "0:v:0", "-map", "0:a:0?", "-sn", "-dn", "-vf", "scale=trunc(iw/2)*2:trunc(ih/2)*2,setsar=1,fps=25", "-c:v", "libx264", "-preset", "medium", "-crf", "18", "-pix_fmt", "yuv420p", "-profile:v", "high", "-level", "4.1", "-g", "25", "-keyint_min", "25", "-sc_threshold", "0", "-bf", "0", "-force_key_frames", "expr:gte(t,n_forced*1)", "-c:a", "aac", "-b:a", "192k", "-ar", "48000", "-ac", "2", "-movflags", "+faststart", "D:\\apps\\ErsatzTV-HLS-Copy-Prep\\target\\01.mp4"]

ffmpeg stats and -progress period set to 5.
Input #0, mov,mp4,m4a,3gp,3g2,mj2, from 'D:\apps\ErsatzTV-HLS-Copy-Prep\source\01.mp4':
  Metadata:
    major_brand     : isom
    minor_version   : 512
    compatible_brands: isomiso2avc1mp41
    date            : 2023-08-18T12:00:32.9281935+08:00
    encoder         : Lavf58.32.104
  Duration: 00:25:28.68, start: 0.000000, bitrate: 1913 kb/s
  Stream #0:0[0x1](und): Video: h264 (High) (avc1 / 0x31637661), yuv420p(tv, bt709, progressive), 1920x1080 [SAR 1:1 DAR 16:9], 1813 kb/s, 25 fps, 25 tbr, 90k tbn (default)
      Metadata:
        handler_name    : VideoHandler
        vendor_id       : [0][0][0][0]
  Stream #0:1[0x2](und): Audio: aac (LC) (mp4a / 0x6134706D), 48000 Hz, stereo, fltp, 93 kb/s (default)
      Metadata:
        handler_name    : SoundHandler
        vendor_id       : [0][0][0][0]
Stream mapping:
  Stream #0:0 -> #0:0 (h264 (native) -> h264 (libx264))
  Stream #0:1 -> #0:1 (aac (native) -> aac (native))
Press [q] to stop, [?] for help
[libx264 @ 000001ad99b600c0] using SAR=1/1
[libx264 @ 000001ad99b600c0] using cpu capabilities: MMX2 SSE2Fast SSSE3 SSE4.2 AVX
[libx264 @ 000001ad99b600c0] profile High, level 4.1, 4:2:0, 8-bit
[libx264 @ 000001ad99b600c0] 264 - core 165 - H.264/MPEG-4 AVC codec - Copyleft 2003-2025 - http://www.videolan.org/x264.html - options: cabac=1 ref=3 deblock=1:0:0 analyse=0x3:0x113 me=hex subme=7 psy=1 psy_rd=1.00:0.00 mixed_ref=1 me_range=16 chroma_me=1 trellis=1 8x8dct=1 cqm=0 deadzone=21,11 fast_pskip=1 chroma_qp_offset=-2 threads=12 lookahead_threads=2 sliced_threads=0 nr=0 decimate=1 interlaced=0 bluray_compat=0 constrained_intra=0 bframes=0 weightp=2 keyint=25 keyint_min=13 scenecut=0 intra_refresh=0 rc_lookahead=25 rc=crf mbtree=1 crf=18.0 qcomp=0.60 qpmin=0 qpmax=69 qpstep=4 ip_ratio=1.40 aq=1:1.00
Output #0, mp4, to 'D:\apps\ErsatzTV-HLS-Copy-Prep\target\01.mp4':
  Metadata:
    major_brand     : isom
    minor_version   : 512
    compatible_brands: isomiso2avc1mp41
    date            : 2023-08-18T12:00:32.9281935+08:00
    encoder         : Lavf61.7.100
  Stream #0:0(und): Video: h264 (avc1 / 0x31637661), yuv420p(tv, bt709, progressive), 1920x1080 [SAR 1:1 DAR 16:9], q=2-31, 25 fps, 12800 tbn (default)
      Metadata:
        handler_name    : VideoHandler
        vendor_id       : [0][0][0][0]
        encoder         : Lavc61.19.101 libx264
      Side data:
        cpb: bitrate max/min/avg: 0/0/0 buffer size: 0 vbv_delay: N/A
  Stream #0:1(und): Audio: aac (LC) (mp4a / 0x6134706D), 48000 Hz, stereo, fltp, 192 kb/s (default)
      Metadata:
        handler_name    : SoundHandler
        vendor_id       : [0][0][0][0]
        encoder         : Lavc61.19.101 aac
frame=  326 fps= 65 q=23.0 size=    2304KiB time=00:00:13.08 bitrate=1443.0kbits/s speed=2.61x    
frame=326
fps=65.10
stream_0_0_q=23.0
bitrate=1443.0kbits/s
total_size=2359344
out_time_us=13080000
out_time_ms=13080000
out_time=00:00:13.080000
dup_frames=0
drop_frames=0
speed=2.61x
progress=continue
frame=  509 fps= 51 q=23.0 size=    8192KiB time=00:00:20.40 bitrate=3289.7kbits/s speed=2.03x    
frame=509
fps=50.76
stream_0_0_q=23.0
bitrate=3289.7kbits/s
total_size=8388656
out_time_us=20400000
out_time_ms=20400000
out_time=00:00:20.400000
dup_frames=0
drop_frames=0
speed=2.03x
progress=continue
frame=  618 fps= 41 q=23.0 size=   18944KiB time=00:00:24.76 bitrate=6267.8kbits/s speed=1.65x    
frame=618
fps=41.06
stream_0_0_q=23.0
bitrate=6267.8kbits/s
total_size=19398704
out_time_us=24760000
out_time_ms=24760000
out_time=00:00:24.760000
dup_frames=0
drop_frames=0
speed=1.65x
progress=continue
frame=  714 fps= 36 q=23.0 size=   26880KiB time=00:00:28.60 bitrate=7699.3kbits/s speed=1.43x    
frame=714
fps=35.58
stream_0_0_q=23.0
bitrate=7699.3kbits/s
total_size=27525168
out_time_us=28600000
out_time_ms=28600000
out_time=00:00:28.600000
dup_frames=0
drop_frames=0
speed=1.43x
progress=continue
frame=  818 fps= 33 q=23.0 size=   32768KiB time=00:00:32.76 bitrate=8194.0kbits/s speed=1.31x    
frame=818
fps=32.59
stream_0_0_q=23.0
bitrate=8194.0kbits/s
total_size=33554480
out_time_us=32760000
out_time_ms=32760000
out_time=00:00:32.760000
dup_frames=0
drop_frames=0
speed=1.31x
progress=continue
frame=  944 fps= 31 q=23.0 size=   37888KiB time=00:00:37.80 bitrate=8211.1kbits/s speed=1.25x    
frame=944
fps=31.34
stream_0_0_q=23.0
bitrate=8211.1kbits/s
total_size=38797360
out_time_us=37800000
out_time_ms=37800000
out_time=00:00:37.800000
dup_frames=0
drop_frames=0
speed=1.25x
progress=continue
frame= 1044 fps= 30 q=23.0 size=   43264KiB time=00:00:41.80 bitrate=8478.9kbits/s speed=1.19x    
frame=1044
fps=29.69
stream_0_0_q=23.0
bitrate=8478.9kbits/s
total_size=44302384
out_time_us=41800000
out_time_ms=41800000
out_time=00:00:41.800000
dup_frames=0
drop_frames=0
speed=1.19x
progress=continue
frame= 1129 fps= 28 q=23.0 size=   49408KiB time=00:00:45.20 bitrate=8954.7kbits/s speed=1.13x    
frame=1129
fps=28.10
stream_0_0_q=23.0
bitrate=8954.7kbits/s
total_size=50593840
out_time_us=45200000
out_time_ms=45200000
out_time=00:00:45.200000
dup_frames=0
drop_frames=0
speed=1.13x
progress=continue
frame= 1211 fps= 27 q=23.0 size=   55808KiB time=00:00:48.48 bitrate=9430.3kbits/s speed=1.07x    
frame=1211
fps=26.78
stream_0_0_q=23.0
bitrate=9430.3kbits/s
total_size=57147440
out_time_us=48480000
out_time_ms=48480000
out_time=00:00:48.480000
dup_frames=0
drop_frames=0
speed=1.07x
progress=continue
frame= 1305 fps= 26 q=23.0 size=   64768KiB time=00:00:52.24 bitrate=10156.6kbits/s speed=1.04x    
frame=1305
fps=25.98
stream_0_0_q=23.0
bitrate=10156.6kbits/s
total_size=66322480
out_time_us=52240000
out_time_ms=52240000
out_time=00:00:52.240000
dup_frames=0
drop_frames=0
speed=1.04x
progress=continue
frame= 1391 fps= 25 q=23.0 size=   70400KiB time=00:00:55.68 bitrate=10357.7kbits/s speed=1.01x    
frame=1391
fps=25.17
stream_0_0_q=23.0
bitrate=10357.7kbits/s
total_size=72089648
out_time_us=55680000
out_time_ms=55680000
out_time=00:00:55.680000
dup_frames=0
drop_frames=0
speed=1.01x
progress=continue
frame= 1490 fps= 25 q=20.0 size=   76800KiB time=00:00:59.64 bitrate=10549.1kbits/s speed=0.989x    
frame=1490
fps=24.71
stream_0_0_q=20.0
bitrate=10549.1kbits/s
total_size=78643248
out_time_us=59640000
out_time_ms=59640000
out_time=00:00:59.640000
dup_frames=0
drop_frames=0
speed=0.989x
progress=continue
frame= 1583 fps= 24 q=23.0 size=   82688KiB time=00:01:03.36 bitrate=10691.0kbits/s speed=0.97x    
frame=1583
fps=24.23
stream_0_0_q=23.0
bitrate=10691.0kbits/s
total_size=84672560
out_time_us=63360000
out_time_ms=63360000
out_time=00:01:03.360000
dup_frames=0
drop_frames=0
speed=0.97x
progress=continue
frame= 1695 fps= 24 q=23.0 size=   88576KiB time=00:01:07.84 bitrate=10696.0kbits/s speed=0.964x    
frame=1695
fps=24.09
stream_0_0_q=23.0
bitrate=10696.0kbits/s
total_size=90701872
out_time_us=67840000
out_time_ms=67840000
out_time=00:01:07.840000
dup_frames=0
drop_frames=0
speed=0.964x
progress=continue
frame= 1799 fps= 24 q=23.0 size=   93952KiB time=00:01:12.00 bitrate=10689.7kbits/s speed=0.955x    
frame=1799
fps=23.86
stream_0_0_q=23.0
bitrate=10689.7kbits/s
total_size=96206896
out_time_us=72000000
out_time_ms=72000000
out_time=00:01:12.000000
dup_frames=0
drop_frames=0
speed=0.955x
progress=continue
frame= 1886 fps= 23 q=23.0 size=  100096KiB time=00:01:15.48 bitrate=10863.6kbits/s speed=0.939x    
frame=1886
fps=23.45
stream_0_0_q=23.0
bitrate=10863.6kbits/s
total_size=102498352
out_time_us=75480000
out_time_ms=75480000
out_time=00:01:15.480000
dup_frames=0
drop_frames=0
speed=0.939x
progress=continue
frame= 1974 fps= 23 q=23.0 size=  107264KiB time=00:01:19.00 bitrate=11122.9kbits/s speed=0.925x    
frame=1974
fps=23.10
stream_0_0_q=23.0
bitrate=11122.9kbits/s
total_size=109838384
out_time_us=79000000
out_time_ms=79000000
out_time=00:01:19.000000
dup_frames=0
drop_frames=0
speed=0.925x
progress=continue
frame= 2073 fps= 23 q=23.0 size=  113920KiB time=00:01:22.96 bitrate=11249.2kbits/s speed=0.917x    
frame=2073
fps=22.92
stream_0_0_q=23.0
bitrate=11249.2kbits/s
total_size=116654128
out_time_us=82960000
out_time_ms=82960000
out_time=00:01:22.960000
dup_frames=0
drop_frames=0
speed=0.917x
progress=continue
frame= 2180 fps= 23 q=23.0 size=  123136KiB time=00:01:27.24 bitrate=11562.7kbits/s speed=0.914x    
frame=2180
fps=22.83
stream_0_0_q=23.0
bitrate=11562.7kbits/s
total_size=126091312
out_time_us=87240000
out_time_ms=87240000
out_time=00:01:27.240000
dup_frames=0
drop_frames=0
speed=0.914x
progress=continue
frame= 2282 fps= 23 q=23.0 size=  129536KiB time=00:01:31.32 bitrate=11620.2kbits/s speed=0.908x    
frame=2282
fps=22.70
stream_0_0_q=23.0
bitrate=11620.2kbits/s
total_size=132644912
out_time_us=91320000
out_time_ms=91320000
out_time=00:01:31.320000
dup_frames=0
drop_frames=0
speed=0.908x
progress=continue
frame= 2414 fps= 23 q=23.0 size=  136448KiB time=00:01:36.56 bitrate=11576.0kbits/s speed=0.915x    
frame=2414
fps=22.86
stream_0_0_q=23.0
bitrate=11576.0kbits/s
total_size=139722800
out_time_us=96560000
out_time_ms=96560000
out_time=00:01:36.560000
dup_frames=0
drop_frames=0
speed=0.915x
progress=continue
frame= 2538 fps= 23 q=23.0 size=  142336KiB time=00:01:41.56 bitrate=11481.1kbits/s speed=0.918x    
frame=2538
fps=22.94
stream_0_0_q=23.0
bitrate=11481.1kbits/s
total_size=145752112
out_time_us=101560000
out_time_ms=101560000
out_time=00:01:41.560000
dup_frames=0
drop_frames=0
speed=0.918x
progress=continue
frame= 2636 fps= 23 q=23.0 size=  147456KiB time=00:01:45.48 bitrate=11452.0kbits/s speed=0.912x    
frame=2636
fps=22.79
stream_0_0_q=23.0
bitrate=11452.0kbits/s
total_size=150994992
out_time_us=105480000
out_time_ms=105480000
out_time=00:01:45.480000
dup_frames=0
drop_frames=0
speed=0.912x
progress=continue
frame= 2733 fps= 23 q=23.0 size=  152576KiB time=00:01:49.36 bitrate=11429.3kbits/s speed=0.906x    
frame=2733
fps=22.65
stream_0_0_q=23.0
bitrate=11429.3kbits/s
total_size=156237872
out_time_us=109360000
out_time_ms=109360000
out_time=00:01:49.360000
dup_frames=0
drop_frames=0
speed=0.906x
progress=continue
frame= 2838 fps= 23 q=23.0 size=  157696KiB time=00:01:53.56 bitrate=11375.9kbits/s speed=0.904x    
frame=2838
fps=22.58
stream_0_0_q=23.0
bitrate=11375.9kbits/s
total_size=161480752
out_time_us=113560000
out_time_ms=113560000
out_time=00:01:53.560000
dup_frames=0
drop_frames=0
speed=0.904x
progress=continue
frame= 2931 fps= 22 q=23.0 size=  163328KiB time=00:01:57.28 bitrate=11408.5kbits/s speed=0.897x    
frame=2931
fps=22.42
stream_0_0_q=23.0
bitrate=11408.5kbits/s
total_size=167247920
out_time_us=117280000
out_time_ms=117280000
out_time=00:01:57.280000
dup_frames=0
drop_frames=0
speed=0.897x
progress=continue
frame= 3024 fps= 22 q=23.0 size=  170496KiB time=00:02:00.96 bitrate=11546.8kbits/s speed=0.891x    
frame=3024
fps=22.28
stream_0_0_q=23.0
bitrate=11546.8kbits/s
total_size=174587952
out_time_us=120960000
out_time_ms=120960000
out_time=00:02:00.960000
dup_frames=0
drop_frames=0
speed=0.891x
progress=continue
frame= 3136 fps= 22 q=23.0 size=  175616KiB time=00:02:05.48 bitrate=11465.1kbits/s speed=0.891x    
frame=3136
fps=22.28
stream_0_0_q=23.0
bitrate=11465.1kbits/s
total_size=179830832
out_time_us=125480000
out_time_ms=125480000
out_time=00:02:05.480000
dup_frames=0
drop_frames=0
speed=0.891x
progress=continue
frame= 3237 fps= 22 q=23.0 size=  181504KiB time=00:02:09.52 bitrate=11479.9kbits/s speed=0.888x    
frame=3237
fps=22.20
stream_0_0_q=23.0
bitrate=11479.9kbits/s
total_size=185860144
out_time_us=129520000
out_time_ms=129520000
out_time=00:02:09.520000
dup_frames=0
drop_frames=0
speed=0.888x
progress=continue
frame= 3322 fps= 22 q=23.0 size=  189184KiB time=00:02:12.92 bitrate=11659.6kbits/s speed=0.881x    
frame=3322
fps=22.03
stream_0_0_q=23.0
bitrate=11659.6kbits/s
total_size=193724464
out_time_us=132920000
out_time_ms=132920000
out_time=00:02:12.920000
dup_frames=0
drop_frames=0
speed=0.881x
progress=continue
frame= 3429 fps= 22 q=23.0 size=  201728KiB time=00:02:17.20 bitrate=12044.9kbits/s speed=0.88x    
frame=3429
fps=22.00
stream_0_0_q=23.0
bitrate=12044.9kbits/s
total_size=206569520
out_time_us=137200000
out_time_ms=137200000
out_time=00:02:17.200000
dup_frames=0
drop_frames=0
speed=0.88x
progress=continue
frame= 3556 fps= 22 q=23.0 size=  206592KiB time=00:02:22.28 bitrate=11894.9kbits/s speed=0.884x    
frame=3556
fps=22.10
stream_0_0_q=23.0
bitrate=11894.9kbits/s
total_size=211550256
out_time_us=142280000
out_time_ms=142280000
out_time=00:02:22.280000
dup_frames=0
drop_frames=0
speed=0.884x
progress=continue
frame= 3660 fps= 22 q=23.0 size=  212224KiB time=00:02:26.44 bitrate=11872.0kbits/s speed=0.882x    
frame=3660
fps=22.06
stream_0_0_q=23.0
bitrate=11872.0kbits/s
total_size=217317424
out_time_us=146440000
out_time_ms=146440000
out_time=00:02:26.440000
dup_frames=0
drop_frames=0
speed=0.882x
progress=continue
frame= 3790 fps= 22 q=20.0 size=  218112KiB time=00:02:31.64 bitrate=11783.0kbits/s speed=0.887x    
frame=3790
fps=22.17
stream_0_0_q=20.0
bitrate=11783.0kbits/s
total_size=223346736
out_time_us=151640000
out_time_ms=151640000
out_time=00:02:31.640000
dup_frames=0
drop_frames=0
speed=0.887x
progress=continue
frame= 3891 fps= 22 q=23.0 size=  224512KiB time=00:02:35.68 bitrate=11814.0kbits/s speed=0.884x    
frame=3891
fps=22.11
stream_0_0_q=23.0
bitrate=11814.0kbits/s
total_size=229900336
out_time_us=155680000
out_time_ms=155680000
out_time=00:02:35.680000
dup_frames=0
drop_frames=0
speed=0.884x
progress=continue
frame= 4077 fps= 23 q=23.0 size=  228608KiB time=00:02:43.12 bitrate=11480.9kbits/s speed=0.901x    
frame=4077
fps=22.52
stream_0_0_q=23.0
bitrate=11480.9kbits/s
total_size=234094640
out_time_us=163120000
out_time_ms=163120000
out_time=00:02:43.120000
dup_frames=0
drop_frames=0
speed=0.901x
progress=continue
frame= 4227 fps= 23 q=23.0 size=  232704KiB time=00:02:49.12 bitrate=11271.9kbits/s speed=0.909x    
frame=4227
fps=22.72
stream_0_0_q=23.0
bitrate=11271.9kbits/s
total_size=238288944
out_time_us=169120000
out_time_ms=169120000
out_time=00:02:49.120000
dup_frames=0
drop_frames=0
speed=0.909x
progress=continue
frame= 4359 fps= 23 q=23.0 size=  236544KiB time=00:02:54.40 bitrate=11111.1kbits/s speed=0.913x    
frame=4359
fps=22.81
stream_0_0_q=23.0
bitrate=11111.1kbits/s
total_size=242221104
out_time_us=174400000
out_time_ms=174400000
out_time=00:02:54.400000
dup_frames=0
drop_frames=0
speed=0.913x
progress=continue
frame= 4495 fps= 23 q=23.0 size=  240384KiB time=00:02:59.84 bitrate=10949.9kbits/s speed=0.917x    
frame=4495
fps=22.92
stream_0_0_q=23.0
bitrate=10949.9kbits/s
total_size=246153264
out_time_us=179840000
out_time_ms=179840000
out_time=00:02:59.840000
dup_frames=0
drop_frames=0
speed=0.917x
progress=continue
frame= 4628 fps= 23 q=23.0 size=  244736KiB time=00:03:05.16 bitrate=10827.8kbits/s speed=0.921x    
frame=4628
fps=23.01
stream_0_0_q=23.0
bitrate=10827.8kbits/s
total_size=250609712
out_time_us=185160000
out_time_ms=185160000
out_time=00:03:05.160000
dup_frames=0
drop_frames=0
speed=0.921x
progress=continue
frame= 4737 fps= 23 q=23.0 size=  248320KiB time=00:03:09.52 bitrate=10733.6kbits/s speed=0.919x    
frame=4737
fps=22.98
stream_0_0_q=23.0
bitrate=10733.6kbits/s
total_size=254279728
out_time_us=189520000
out_time_ms=189520000
out_time=00:03:09.520000
dup_frames=0
drop_frames=0
speed=0.919x
progress=continue
frame= 4846 fps= 23 q=23.0 size=  252672KiB time=00:03:13.84 bitrate=10678.3kbits/s speed=0.918x    
frame=4846
fps=22.95
stream_0_0_q=23.0
bitrate=10678.3kbits/s
total_size=258736176
out_time_us=193840000
out_time_ms=193840000
out_time=00:03:13.840000
dup_frames=0
drop_frames=0
speed=0.918x
progress=continue
frame= 4977 fps= 23 q=23.0 size=  256512KiB time=00:03:19.12 bitrate=10553.2kbits/s speed=0.921x    
frame=4977
fps=23.02
stream_0_0_q=23.0
bitrate=10553.2kbits/s
total_size=262668336
out_time_us=199120000
out_time_ms=199120000
out_time=00:03:19.120000
dup_frames=0
drop_frames=0
speed=0.921x
progress=continue
frame= 5104 fps= 23 q=23.0 size=  261120KiB time=00:03:24.20 bitrate=10475.5kbits/s speed=0.923x    
frame=5104
fps=23.07
stream_0_0_q=23.0
bitrate=10475.5kbits/s
total_size=267386928
out_time_us=204200000
out_time_ms=204200000
out_time=00:03:24.200000
dup_frames=0
drop_frames=0
speed=0.923x
progress=continue
frame= 5198 fps= 23 q=23.0 size=  266240KiB time=00:03:27.96 bitrate=10487.8kbits/s speed=0.919x    
frame=5198
fps=22.97
stream_0_0_q=23.0
bitrate=10487.8kbits/s
total_size=272629808
out_time_us=207960000
out_time_ms=207960000
out_time=00:03:27.960000
dup_frames=0
drop_frames=0
speed=0.919x
progress=continue
frame= 5309 fps= 23 q=23.0 size=  271616KiB time=00:03:32.40 bitrate=10475.9kbits/s speed=0.918x    
frame=5309
fps=22.95
stream_0_0_q=23.0
bitrate=10475.9kbits/s
total_size=278134832
out_time_us=212400000
out_time_ms=212400000
out_time=00:03:32.400000
dup_frames=0
drop_frames=0
speed=0.918x
progress=continue
frame= 5460 fps= 23 q=23.0 size=  276992KiB time=00:03:38.44 bitrate=10387.8kbits/s speed=0.924x    
frame=5460
fps=23.11
stream_0_0_q=23.0
bitrate=10387.8kbits/s
total_size=283639856
out_time_us=218440000
out_time_ms=218440000
out_time=00:03:38.440000
dup_frames=0
drop_frames=0
speed=0.924x
progress=continue
frame= 5580 fps= 23 q=23.0 size=  281600KiB time=00:03:43.24 bitrate=10333.6kbits/s speed=0.925x    
frame=5580
fps=23.12
stream_0_0_q=23.0
bitrate=10333.6kbits/s
total_size=288358448
out_time_us=223240000
out_time_ms=223240000
out_time=00:03:43.240000
dup_frames=0
drop_frames=0
speed=0.925x
progress=continue
frame= 5696 fps= 23 q=23.0 size=  285952KiB time=00:03:47.88 bitrate=10279.6kbits/s speed=0.925x    
frame=5696
fps=23.12
stream_0_0_q=23.0
bitrate=10279.6kbits/s
total_size=292814896
out_time_us=227880000
out_time_ms=227880000
out_time=00:03:47.880000
dup_frames=0
drop_frames=0
speed=0.925x
progress=continue
frame= 5805 fps= 23 q=23.0 size=  290048KiB time=00:03:52.24 bitrate=10231.1kbits/s speed=0.924x    
frame=5805
fps=23.09
stream_0_0_q=23.0
bitrate=10231.1kbits/s
total_size=297009200
out_time_us=232240000
out_time_ms=232240000
out_time=00:03:52.240000
dup_frames=0
drop_frames=0
speed=0.924x
progress=continue
frame= 5938 fps= 23 q=23.0 size=  294400KiB time=00:03:57.56 bitrate=10152.1kbits/s speed=0.927x    
frame=5938
fps=23.16
stream_0_0_q=23.0
bitrate=10152.1kbits/s
total_size=301465648
out_time_us=237560000
out_time_ms=237560000
out_time=00:03:57.560000
dup_frames=0
drop_frames=0
speed=0.927x
progress=continue
frame= 6074 fps= 23 q=23.0 size=  299008KiB time=00:04:03.00 bitrate=10080.1kbits/s speed=0.93x    
frame=6074
fps=23.23
stream_0_0_q=23.0
bitrate=10080.1kbits/s
total_size=306184240
out_time_us=243000000
out_time_ms=243000000
out_time=00:04:03.000000
dup_frames=0
drop_frames=0
speed=0.93x
progress=continue
frame= 6207 fps= 23 q=23.0 size=  303616KiB time=00:04:08.32 bitrate=10016.2kbits/s speed=0.932x    
frame=6207
fps=23.30
stream_0_0_q=23.0
bitrate=10016.2kbits/s
total_size=310902832
out_time_us=248320000
out_time_ms=248320000
out_time=00:04:08.320000
dup_frames=0
drop_frames=0
speed=0.932x
progress=continue
frame= 6343 fps= 23 q=23.0 size=  307712KiB time=00:04:13.76 bitrate=9933.7kbits/s speed=0.935x    
frame=6343
fps=23.37
stream_0_0_q=23.0
bitrate=9933.7kbits/s
total_size=315097136
out_time_us=253760000
out_time_ms=253760000
out_time=00:04:13.760000
dup_frames=0
drop_frames=0
speed=0.935x
progress=continue
frame= 6639 fps= 24 q=23.0 size=  312064KiB time=00:04:25.60 bitrate=9625.1kbits/s speed=0.961x    
frame=6639
fps=24.01
stream_0_0_q=23.0
bitrate=9625.1kbits/s
total_size=319553584
out_time_us=265600000
out_time_ms=265600000
out_time=00:04:25.600000
dup_frames=0
drop_frames=0
speed=0.961x
progress=continue
frame= 6934 fps= 25 q=23.0 size=  315136KiB time=00:04:37.40 bitrate=9306.4kbits/s speed=0.985x    
frame=6934
fps=24.63
stream_0_0_q=23.0
bitrate=9306.4kbits/s
total_size=322699312
out_time_us=277400000
out_time_ms=277400000
out_time=00:04:37.400000
dup_frames=0
drop_frames=0
speed=0.985x
progress=continue
frame= 7243 fps= 25 q=23.0 size=  318208KiB time=00:04:49.76 bitrate=8996.3kbits/s speed=1.01x    
frame=7243
fps=25.28
stream_0_0_q=23.0
bitrate=8996.3kbits/s
total_size=325845040
out_time_us=289760000
out_time_ms=289760000
out_time=00:04:49.760000
dup_frames=0
drop_frames=0
speed=1.01x
progress=continue
frame= 7523 fps= 26 q=23.0 size=  321024KiB time=00:05:00.96 bitrate=8738.1kbits/s speed=1.03x    
frame=7523
fps=25.81
stream_0_0_q=23.0
bitrate=8738.1kbits/s
total_size=328728624
out_time_us=300960000
out_time_ms=300960000
out_time=00:05:00.960000
dup_frames=0
drop_frames=0
speed=1.03x
progress=continue
frame= 7694 fps= 26 q=23.0 size=  323840KiB time=00:05:07.80 bitrate=8618.9kbits/s speed=1.04x    
frame=7694
fps=25.95
stream_0_0_q=23.0
bitrate=8618.9kbits/s
total_size=331612208
out_time_us=307800000
out_time_ms=307800000
out_time=00:05:07.800000
dup_frames=0
drop_frames=0
speed=1.04x
progress=continue
frame= 7907 fps= 26 q=23.0 size=  326656KiB time=00:05:16.32 bitrate=8459.7kbits/s speed=1.05x    
frame=7907
fps=26.22
stream_0_0_q=23.0
bitrate=8459.7kbits/s
total_size=334495792
out_time_us=316320000
out_time_ms=316320000
out_time=00:05:16.320000
dup_frames=0
drop_frames=0
speed=1.05x
progress=continue
frame= 8099 fps= 26 q=23.0 size=  330240KiB time=00:05:24.00 bitrate=8349.8kbits/s speed=1.06x    
frame=8099
fps=26.42
stream_0_0_q=23.0
bitrate=8349.8kbits/s
total_size=338165808
out_time_us=324000000
out_time_ms=324000000
out_time=00:05:24.000000
dup_frames=0
drop_frames=0
speed=1.06x
progress=continue
frame= 8280 fps= 27 q=23.0 size=  334080KiB time=00:05:31.24 bitrate=8262.2kbits/s speed=1.06x    
frame=8280
fps=26.57
stream_0_0_q=23.0
bitrate=8262.2kbits/s
total_size=342097968
out_time_us=331240000
out_time_ms=331240000
out_time=00:05:31.240000
dup_frames=0
drop_frames=0
speed=1.06x
progress=continue
frame= 8493 fps= 27 q=23.0 size=  337664KiB time=00:05:39.72 bitrate=8142.4kbits/s speed=1.07x    
frame=8493
fps=26.82
stream_0_0_q=23.0
bitrate=8142.4kbits/s
total_size=345767984
out_time_us=339720000
out_time_ms=339720000
out_time=00:05:39.720000
dup_frames=0
drop_frames=0
speed=1.07x
progress=continue
frame= 8688 fps= 27 q=23.0 size=  340480KiB time=00:05:47.56 bitrate=8025.1kbits/s speed=1.08x    
frame=8688
fps=27.01
stream_0_0_q=23.0
bitrate=8025.1kbits/s
total_size=348651568
out_time_us=347560000
out_time_ms=347560000
out_time=00:05:47.560000
dup_frames=0
drop_frames=0
speed=1.08x
progress=continue
frame= 8844 fps= 27 q=23.0 size=  343808KiB time=00:05:53.76 bitrate=7961.5kbits/s speed=1.08x    
frame=8844
fps=27.07
stream_0_0_q=23.0
bitrate=7961.5kbits/s
total_size=352059440
out_time_us=353760000
out_time_ms=353760000
out_time=00:05:53.760000
dup_frames=0
drop_frames=0
speed=1.08x
progress=continue
frame= 8983 fps= 27 q=23.0 size=  346880KiB time=00:05:59.36 bitrate=7907.5kbits/s speed=1.08x    
frame=8983
fps=27.08
stream_0_0_q=23.0
bitrate=7907.5kbits/s
total_size=355205168
out_time_us=359360000
out_time_ms=359360000
out_time=00:05:59.360000
dup_frames=0
drop_frames=0
speed=1.08x
progress=continue
frame= 9097 fps= 27 q=23.0 size=  350208KiB time=00:06:03.92 bitrate=7883.3kbits/s speed=1.08x    
frame=9097
fps=27.02
stream_0_0_q=23.0
bitrate=7883.3kbits/s
total_size=358613040
out_time_us=363920000
out_time_ms=363920000
out_time=00:06:03.920000
dup_frames=0
drop_frames=0
speed=1.08x
progress=continue
frame= 9253 fps= 27 q=23.0 size=  353536KiB time=00:06:10.16 bitrate=7824.1kbits/s speed=1.08x    
frame=9253
fps=27.08
stream_0_0_q=23.0
bitrate=7824.1kbits/s
total_size=362020912
out_time_us=370160000
out_time_ms=370160000
out_time=00:06:10.160000
dup_frames=0
drop_frames=0
speed=1.08x
progress=continue
frame= 9432 fps= 27 q=23.0 size=  356864KiB time=00:06:17.32 bitrate=7747.9kbits/s speed=1.09x    
frame=9432
fps=27.20
stream_0_0_q=23.0
bitrate=7747.9kbits/s
total_size=365428784
out_time_us=377320000
out_time_ms=377320000
out_time=00:06:17.320000
dup_frames=0
drop_frames=0
speed=1.09x
progress=continue
frame= 9694 fps= 28 q=23.0 size=  359680KiB time=00:06:27.80 bitrate=7598.0kbits/s speed= 1.1x    
frame=9694
fps=27.56
stream_0_0_q=23.0
bitrate=7598.0kbits/s
total_size=368312368
out_time_us=387800000
out_time_ms=387800000
out_time=00:06:27.800000
dup_frames=0
drop_frames=0
speed= 1.1x
progress=continue
frame= 9831 fps= 28 q=23.0 size=  362752KiB time=00:06:33.28 bitrate=7556.1kbits/s speed= 1.1x    
frame=9831
fps=27.55
stream_0_0_q=23.0
bitrate=7556.1kbits/s
total_size=371458096
out_time_us=393280000
out_time_ms=393280000
out_time=00:06:33.280000
dup_frames=0
drop_frames=0
speed= 1.1x
progress=continue
frame=10089 fps= 28 q=23.0 size=  366080KiB time=00:06:43.60 bitrate=7430.4kbits/s speed=1.12x    
frame=10089
fps=27.88
stream_0_0_q=23.0
bitrate=7430.4kbits/s
total_size=374865968
out_time_us=403600000
out_time_ms=403600000
out_time=00:06:43.600000
dup_frames=0
drop_frames=0
speed=1.12x
progress=continue
frame=10308 fps= 28 q=23.0 size=  369920KiB time=00:06:52.36 bitrate=7348.9kbits/s speed=1.12x    
frame=10308
fps=28.10
stream_0_0_q=23.0
bitrate=7348.9kbits/s
total_size=378798128
out_time_us=412360000
out_time_ms=412360000
out_time=00:06:52.360000
dup_frames=0
drop_frames=0
speed=1.12x
progress=continue
frame=10529 fps= 28 q=23.0 size=  374016KiB time=00:07:01.20 bitrate=7274.3kbits/s speed=1.13x    
frame=10529
fps=28.32
stream_0_0_q=23.0
bitrate=7274.3kbits/s
total_size=382992432
out_time_us=421200000
out_time_ms=421200000
out_time=00:07:01.200000
dup_frames=0
drop_frames=0
speed=1.13x
progress=continue
frame=10758 fps= 29 q=23.0 size=  377600KiB time=00:07:10.36 bitrate=7187.7kbits/s speed=1.14x    
frame=10758
fps=28.55
stream_0_0_q=23.0
bitrate=7187.7kbits/s
total_size=386662448
out_time_us=430360000
out_time_ms=430360000
out_time=00:07:10.360000
dup_frames=0
drop_frames=0
speed=1.14x
progress=continue
frame=10974 fps= 29 q=23.0 size=  380928KiB time=00:07:19.00 bitrate=7108.3kbits/s speed=1.15x    
frame=10974
fps=28.73
stream_0_0_q=23.0
bitrate=7108.3kbits/s
total_size=390070320
out_time_us=439000000
out_time_ms=439000000
out_time=00:07:19.000000
dup_frames=0
drop_frames=0
speed=1.15x
progress=continue
frame=11213 fps= 29 q=23.0 size=  383744KiB time=00:07:28.56 bitrate=7008.3kbits/s speed=1.16x    
frame=11213
fps=28.98
stream_0_0_q=23.0
bitrate=7008.3kbits/s
total_size=392953904
out_time_us=448560000
out_time_ms=448560000
out_time=00:07:28.560000
dup_frames=0
drop_frames=0
speed=1.16x
progress=continue
frame=11454 fps= 29 q=23.0 size=  386816KiB time=00:07:38.20 bitrate=6915.8kbits/s speed=1.17x    
frame=11454
fps=29.22
stream_0_0_q=23.0
bitrate=6915.8kbits/s
total_size=396099632
out_time_us=458200000
out_time_ms=458200000
out_time=00:07:38.200000
dup_frames=0
drop_frames=0
speed=1.17x
progress=continue
frame=11659 fps= 29 q=23.0 size=  389632KiB time=00:07:46.40 bitrate=6843.6kbits/s speed=1.17x    
frame=11659
fps=29.37
stream_0_0_q=23.0
bitrate=6843.6kbits/s
total_size=398983216
out_time_us=466400000
out_time_ms=466400000
out_time=00:07:46.400000
dup_frames=0
drop_frames=0
speed=1.17x
progress=continue
frame=11908 fps= 30 q=23.0 size=  392704KiB time=00:07:56.36 bitrate=6753.4kbits/s speed=1.19x    
frame=11908
fps=29.62
stream_0_0_q=23.0
bitrate=6753.4kbits/s
total_size=402128944
out_time_us=476360000
out_time_ms=476360000
out_time=00:07:56.360000
dup_frames=0
drop_frames=0
speed=1.19x
progress=continue
frame=12110 fps= 30 q=23.0 size=  395776KiB time=00:08:04.40 bitrate=6693.2kbits/s speed=1.19x    
frame=12110
fps=29.75
stream_0_0_q=23.0
bitrate=6693.2kbits/s
total_size=405274672
out_time_us=484400000
out_time_ms=484400000
out_time=00:08:04.400000
dup_frames=0
drop_frames=0
speed=1.19x
progress=continue
frame=12323 fps= 30 q=23.0 size=  398848KiB time=00:08:12.96 bitrate=6628.0kbits/s speed= 1.2x    
frame=12323
fps=29.91
stream_0_0_q=23.0
bitrate=6628.0kbits/s
total_size=408420400
out_time_us=492960000
out_time_ms=492960000
out_time=00:08:12.960000
dup_frames=0
drop_frames=0
speed= 1.2x
progress=continue
frame=12549 fps= 30 q=23.0 size=  402432KiB time=00:08:22.00 bitrate=6567.2kbits/s speed= 1.2x    
frame=12549
fps=30.09
stream_0_0_q=23.0
bitrate=6567.2kbits/s
total_size=412090416
out_time_us=502000000
out_time_ms=502000000
out_time=00:08:22.000000
dup_frames=0
drop_frames=0
speed= 1.2x
progress=continue
frame=12770 fps= 30 q=23.0 size=  406016KiB time=00:08:30.84 bitrate=6511.0kbits/s speed=1.21x    
frame=12770
fps=30.25
stream_0_0_q=23.0
bitrate=6511.0kbits/s
total_size=415760432
out_time_us=510840000
out_time_ms=510840000
out_time=00:08:30.840000
dup_frames=0
drop_frames=0
speed=1.21x
progress=continue
frame=13047 fps= 31 q=23.0 size=  409344KiB time=00:08:41.92 bitrate=6425.0kbits/s speed=1.22x    
frame=13047
fps=30.55
stream_0_0_q=23.0
bitrate=6425.0kbits/s
total_size=419168304
out_time_us=521920000
out_time_ms=521920000
out_time=00:08:41.920000
dup_frames=0
drop_frames=0
speed=1.22x
progress=continue
frame=13289 fps= 31 q=23.0 size=  412672KiB time=00:08:51.56 bitrate=6359.8kbits/s speed=1.23x    
frame=13289
fps=30.75
stream_0_0_q=23.0
bitrate=6359.8kbits/s
total_size=422576176
out_time_us=531560000
out_time_ms=531560000
out_time=00:08:51.560000
dup_frames=0
drop_frames=0
speed=1.23x
progress=continue
frame=13455 fps= 31 q=23.0 size=  416000KiB time=00:08:58.24 bitrate=6331.5kbits/s speed=1.23x    
frame=13455
fps=30.78
stream_0_0_q=23.0
bitrate=6331.5kbits/s
total_size=425984048
out_time_us=538240000
out_time_ms=538240000
out_time=00:08:58.240000
dup_frames=0
drop_frames=0
speed=1.23x
progress=continue
frame=13566 fps= 31 q=23.0 size=  419072KiB time=00:09:02.68 bitrate=6326.1kbits/s speed=1.23x    
frame=13566
fps=30.68
stream_0_0_q=23.0
bitrate=6326.1kbits/s
total_size=429129776
out_time_us=542680000
out_time_ms=542680000
out_time=00:09:02.680000
dup_frames=0
drop_frames=0
speed=1.23x
progress=continue
frame=13693 fps= 31 q=23.0 size=  423936KiB time=00:09:07.76 bitrate=6340.2kbits/s speed=1.22x    
frame=13693
fps=30.62
stream_0_0_q=23.0
bitrate=6340.2kbits/s
total_size=434110512
out_time_us=547760000
out_time_ms=547760000
out_time=00:09:07.760000
dup_frames=0
drop_frames=0
speed=1.22x
progress=continue
frame=13854 fps= 31 q=23.0 size=  429312KiB time=00:09:14.20 bitrate=6345.9kbits/s speed=1.23x    
frame=13854
fps=30.63
stream_0_0_q=23.0
bitrate=6345.9kbits/s
total_size=439615536
out_time_us=554200000
out_time_ms=554200000
out_time=00:09:14.200000
dup_frames=0
drop_frames=0
speed=1.23x
progress=continue
frame=13963 fps= 31 q=23.0 size=  434432KiB time=00:09:18.56 bitrate=6371.5kbits/s speed=1.22x    
frame=13963
fps=30.54
stream_0_0_q=23.0
bitrate=6371.5kbits/s
total_size=444858416
out_time_us=558560000
out_time_ms=558560000
out_time=00:09:18.560000
dup_frames=0
drop_frames=0
speed=1.22x
progress=continue
frame=14078 fps= 30 q=23.0 size=  440320KiB time=00:09:23.16 bitrate=6405.1kbits/s speed=1.22x    
frame=14078
fps=30.45
stream_0_0_q=23.0
bitrate=6405.1kbits/s
total_size=450887728
out_time_us=563160000
out_time_ms=563160000
out_time=00:09:23.160000
dup_frames=0
drop_frames=0
speed=1.22x
progress=continue
frame=14197 fps= 30 q=23.0 size=  445696KiB time=00:09:27.88 bitrate=6429.4kbits/s speed=1.22x    
frame=14197
fps=30.38
stream_0_0_q=23.0
bitrate=6429.4kbits/s
total_size=456392752
out_time_us=567880000
out_time_ms=567880000
out_time=00:09:27.880000
dup_frames=0
drop_frames=0
speed=1.22x
progress=continue
frame=14321 fps= 30 q=23.0 size=  451072KiB time=00:09:32.88 bitrate=6450.2kbits/s speed=1.21x    
frame=14321
fps=30.32
stream_0_0_q=23.0
bitrate=6450.2kbits/s
total_size=461897776
out_time_us=572880000
out_time_ms=572880000
out_time=00:09:32.880000
dup_frames=0
drop_frames=0
speed=1.21x
progress=continue
frame=14444 fps= 30 q=23.0 size=  457216KiB time=00:09:37.80 bitrate=6482.4kbits/s speed=1.21x    
frame=14444
fps=30.25
stream_0_0_q=23.0
bitrate=6482.4kbits/s
total_size=468189232
out_time_us=577800000
out_time_ms=577800000
out_time=00:09:37.800000
dup_frames=0
drop_frames=0
speed=1.21x
progress=continue
frame=14573 fps= 30 q=23.0 size=  462336KiB time=00:09:42.96 bitrate=6496.9kbits/s speed=1.21x    
frame=14573
fps=30.20
stream_0_0_q=23.0
bitrate=6496.9kbits/s
total_size=473432112
out_time_us=582960000
out_time_ms=582960000
out_time=00:09:42.960000
dup_frames=0
drop_frames=0
speed=1.21x
progress=continue
frame=14706 fps= 30 q=23.0 size=  466944KiB time=00:09:48.28 bitrate=6502.4kbits/s speed=1.21x    
frame=14706
fps=30.17
stream_0_0_q=23.0
bitrate=6502.4kbits/s
total_size=478150704
out_time_us=588280000
out_time_ms=588280000
out_time=00:09:48.280000
dup_frames=0
drop_frames=0
speed=1.21x
progress=continue
frame=14845 fps= 30 q=23.0 size=  470528KiB time=00:09:53.84 bitrate=6490.9kbits/s speed=1.21x    
frame=14845
fps=30.14
stream_0_0_q=23.0
bitrate=6490.9kbits/s
total_size=481820720
out_time_us=593840000
out_time_ms=593840000
out_time=00:09:53.840000
dup_frames=0
drop_frames=0
speed=1.21x
progress=continue
frame=14960 fps= 30 q=23.0 size=  474624KiB time=00:09:58.44 bitrate=6497.1kbits/s speed= 1.2x    
frame=14960
fps=30.07
stream_0_0_q=23.0
bitrate=6497.1kbits/s
total_size=486015024
out_time_us=598440000
out_time_ms=598440000
out_time=00:09:58.440000
dup_frames=0
drop_frames=0
speed= 1.2x
progress=continue
frame=15085 fps= 30 q=23.0 size=  477440KiB time=00:10:03.44 bitrate=6481.5kbits/s speed= 1.2x    
frame=15085
fps=30.01
stream_0_0_q=23.0
bitrate=6481.5kbits/s
total_size=488898608
out_time_us=603440000
out_time_ms=603440000
out_time=00:10:03.440000
dup_frames=0
drop_frames=0
speed= 1.2x
progress=continue
frame=15212 fps= 30 q=23.0 size=  480512KiB time=00:10:08.52 bitrate=6468.7kbits/s speed= 1.2x    
frame=15212
fps=29.97
stream_0_0_q=23.0
bitrate=6468.7kbits/s
total_size=492044336
out_time_us=608520000
out_time_ms=608520000
out_time=00:10:08.520000
dup_frames=0
drop_frames=0
speed= 1.2x
progress=continue
frame=15321 fps= 30 q=23.0 size=  484096KiB time=00:10:12.88 bitrate=6470.6kbits/s speed= 1.2x    
frame=15321
fps=29.89
stream_0_0_q=23.0
bitrate=6470.6kbits/s
total_size=495714352
out_time_us=612880000
out_time_ms=612880000
out_time=00:10:12.880000
dup_frames=0
drop_frames=0
speed= 1.2x
progress=continue
frame=15436 fps= 30 q=23.0 size=  487168KiB time=00:10:17.48 bitrate=6463.2kbits/s speed=1.19x    
frame=15436
fps=29.82
stream_0_0_q=23.0
bitrate=6463.2kbits/s
total_size=498860080
out_time_us=617480000
out_time_ms=617480000
out_time=00:10:17.480000
dup_frames=0
drop_frames=0
speed=1.19x
progress=continue
frame=15547 fps= 30 q=23.0 size=  490752KiB time=00:10:21.92 bitrate=6464.2kbits/s speed=1.19x    
frame=15547
fps=29.75
stream_0_0_q=23.0
bitrate=6464.2kbits/s
total_size=502530096
out_time_us=621920000
out_time_ms=621920000
out_time=00:10:21.920000
dup_frames=0
drop_frames=0
speed=1.19x
progress=continue
frame=15675 fps= 30 q=23.0 size=  493824KiB time=00:10:27.00 bitrate=6452.0kbits/s speed=1.19x    
frame=15675
fps=29.71
stream_0_0_q=23.0
bitrate=6452.0kbits/s
total_size=505675824
out_time_us=627000000
out_time_ms=627000000
out_time=00:10:27.000000
dup_frames=0
drop_frames=0
speed=1.19x
progress=continue
frame=15823 fps= 30 q=23.0 size=  498176KiB time=00:10:32.92 bitrate=6448.0kbits/s speed=1.19x    
frame=15823
fps=29.70
stream_0_0_q=23.0
bitrate=6448.0kbits/s
total_size=510132272
out_time_us=632920000
out_time_ms=632920000
out_time=00:10:32.920000
dup_frames=0
drop_frames=0
speed=1.19x
progress=continue
frame=15966 fps= 30 q=23.0 size=  502528KiB time=00:10:38.68 bitrate=6445.7kbits/s speed=1.19x    
frame=15966
fps=29.69
stream_0_0_q=23.0
bitrate=6445.7kbits/s
total_size=514588720
out_time_us=638680000
out_time_ms=638680000
out_time=00:10:38.680000
dup_frames=0
drop_frames=0
speed=1.19x
progress=continue
frame=16092 fps= 30 q=23.0 size=  506880KiB time=00:10:43.72 bitrate=6450.6kbits/s speed=1.19x    
frame=16092
fps=29.65
stream_0_0_q=23.0
bitrate=6450.6kbits/s
total_size=519045168
out_time_us=643720000
out_time_ms=643720000
out_time=00:10:43.720000
dup_frames=0
drop_frames=0
speed=1.19x
progress=continue
frame=16206 fps= 30 q=23.0 size=  510464KiB time=00:10:48.28 bitrate=6450.5kbits/s speed=1.18x    
frame=16206
fps=29.58
stream_0_0_q=23.0
bitrate=6450.5kbits/s
total_size=522715184
out_time_us=648280000
out_time_ms=648280000
out_time=00:10:48.280000
dup_frames=0
drop_frames=0
speed=1.18x
progress=continue
frame=16329 fps= 30 q=23.0 size=  513792KiB time=00:10:53.20 bitrate=6443.6kbits/s speed=1.18x    
frame=16329
fps=29.54
stream_0_0_q=23.0
bitrate=6443.6kbits/s
total_size=526123056
out_time_us=653200000
out_time_ms=653200000
out_time=00:10:53.200000
dup_frames=0
drop_frames=0
speed=1.18x
progress=continue
frame=16438 fps= 29 q=23.0 size=  516352KiB time=00:10:57.56 bitrate=6432.8kbits/s speed=1.18x    
frame=16438
fps=29.47
stream_0_0_q=23.0
bitrate=6432.8kbits/s
total_size=528744496
out_time_us=657560000
out_time_ms=657560000
out_time=00:10:57.560000
dup_frames=0
drop_frames=0
speed=1.18x
progress=continue
frame=16574 fps= 29 q=23.0 size=  519680KiB time=00:11:03.00 bitrate=6421.1kbits/s speed=1.18x    
frame=16574
fps=29.45
stream_0_0_q=23.0
bitrate=6421.1kbits/s
total_size=532152368
out_time_us=663000000
out_time_ms=663000000
out_time=00:11:03.000000
dup_frames=0
drop_frames=0
speed=1.18x
progress=continue
frame=16729 fps= 29 q=23.0 size=  524032KiB time=00:11:09.20 bitrate=6414.9kbits/s speed=1.18x    
frame=16729
fps=29.46
stream_0_0_q=23.0
bitrate=6414.9kbits/s
total_size=536608816
out_time_us=669200000
out_time_ms=669200000
out_time=00:11:09.200000
dup_frames=0
drop_frames=0
speed=1.18x
progress=continue
frame=16872 fps= 29 q=23.0 size=  528384KiB time=00:11:14.92 bitrate=6413.4kbits/s speed=1.18x    
frame=16872
fps=29.45
stream_0_0_q=23.0
bitrate=6413.4kbits/s
total_size=541065264
out_time_us=674920000
out_time_ms=674920000
out_time=00:11:14.920000
dup_frames=0
drop_frames=0
speed=1.18x
progress=continue
frame=17019 fps= 29 q=23.0 size=  532480KiB time=00:11:20.76 bitrate=6407.7kbits/s speed=1.18x    
frame=17019
fps=29.45
stream_0_0_q=23.0
bitrate=6407.7kbits/s
total_size=545259568
out_time_us=680760000
out_time_ms=680760000
out_time=00:11:20.760000
dup_frames=0
drop_frames=0
speed=1.18x
progress=continue
frame=17160 fps= 29 q=23.0 size=  535808KiB time=00:11:26.44 bitrate=6394.4kbits/s speed=1.18x    
frame=17160
fps=29.44
stream_0_0_q=23.0
bitrate=6394.4kbits/s
total_size=548667440
out_time_us=686440000
out_time_ms=686440000
out_time=00:11:26.440000
dup_frames=0
drop_frames=0
speed=1.18x
progress=continue
frame=17311 fps= 29 q=23.0 size=  539392KiB time=00:11:32.48 bitrate=6381.0kbits/s speed=1.18x    
frame=17311
fps=29.44
stream_0_0_q=23.0
bitrate=6381.0kbits/s
total_size=552337456
out_time_us=692480000
out_time_ms=692480000
out_time=00:11:32.480000
dup_frames=0
drop_frames=0
speed=1.18x
progress=continue
frame=17462 fps= 29 q=23.0 size=  543232KiB time=00:11:38.52 bitrate=6370.8kbits/s speed=1.18x    
frame=17462
fps=29.45
stream_0_0_q=23.0
bitrate=6370.8kbits/s
total_size=556269616
out_time_us=698520000
out_time_ms=698520000
out_time=00:11:38.520000
dup_frames=0
drop_frames=0
speed=1.18x
progress=continue
frame=17601 fps= 29 q=23.0 size=  547072KiB time=00:11:44.08 bitrate=6365.2kbits/s speed=1.18x    
frame=17601
fps=29.43
stream_0_0_q=23.0
bitrate=6365.2kbits/s
total_size=560201776
out_time_us=704080000
out_time_ms=704080000
out_time=00:11:44.080000
dup_frames=0
drop_frames=0
speed=1.18x
progress=continue
frame=17753 fps= 29 q=23.0 size=  550912KiB time=00:11:50.16 bitrate=6355.0kbits/s speed=1.18x    
frame=17753
fps=29.44
stream_0_0_q=23.0
bitrate=6355.0kbits/s
total_size=564133936
out_time_us=710160000
out_time_ms=710160000
out_time=00:11:50.160000
dup_frames=0
drop_frames=0
speed=1.18x
progress=continue
frame=17895 fps= 29 q=23.0 size=  554496KiB time=00:11:55.84 bitrate=6345.6kbits/s speed=1.18x    
frame=17895
fps=29.43
stream_0_0_q=23.0
bitrate=6345.6kbits/s
total_size=567803952
out_time_us=715840000
out_time_ms=715840000
out_time=00:11:55.840000
dup_frames=0
drop_frames=0
speed=1.18x
progress=continue
frame=18033 fps= 29 q=23.0 size=  558080KiB time=00:12:01.36 bitrate=6337.7kbits/s speed=1.18x    
frame=18033
fps=29.41
stream_0_0_q=23.0
bitrate=6337.7kbits/s
total_size=571473968
out_time_us=721360000
out_time_ms=721360000
out_time=00:12:01.360000
dup_frames=0
drop_frames=0
speed=1.18x
progress=continue
frame=18160 fps= 29 q=23.0 size=  561920KiB time=00:12:06.44 bitrate=6336.7kbits/s speed=1.18x    
frame=18160
fps=29.38
stream_0_0_q=23.0
bitrate=6336.7kbits/s
total_size=575406128
out_time_us=726440000
out_time_ms=726440000
out_time=00:12:06.440000
dup_frames=0
drop_frames=0
speed=1.18x
progress=continue
frame=18295 fps= 29 q=23.0 size=  565760KiB time=00:12:11.84 bitrate=6333.0kbits/s speed=1.17x    
frame=18295
fps=29.36
stream_0_0_q=23.0
bitrate=6333.0kbits/s
total_size=579338288
out_time_us=731840000
out_time_ms=731840000
out_time=00:12:11.840000
dup_frames=0
drop_frames=0
speed=1.17x
progress=continue
frame=18442 fps= 29 q=23.0 size=  569856KiB time=00:12:17.72 bitrate=6328.0kbits/s speed=1.17x    
frame=18442
fps=29.36
stream_0_0_q=23.0
bitrate=6328.0kbits/s
total_size=583532592
out_time_us=737720000
out_time_ms=737720000
out_time=00:12:17.720000
dup_frames=0
drop_frames=0
speed=1.17x
progress=continue
frame=18589 fps= 29 q=23.0 size=  573696KiB time=00:12:23.60 bitrate=6320.2kbits/s speed=1.17x    
frame=18589
fps=29.36
stream_0_0_q=23.0
bitrate=6320.2kbits/s
total_size=587464752
out_time_us=743600000
out_time_ms=743600000
out_time=00:12:23.600000
dup_frames=0
drop_frames=0
speed=1.17x
progress=continue
frame=18735 fps= 29 q=23.0 size=  577792KiB time=00:12:29.44 bitrate=6315.7kbits/s speed=1.17x    
frame=18735
fps=29.36
stream_0_0_q=23.0
bitrate=6315.7kbits/s
total_size=591659056
out_time_us=749440000
out_time_ms=749440000
out_time=00:12:29.440000
dup_frames=0
drop_frames=0
speed=1.17x
progress=continue
frame=18838 fps= 29 q=23.0 size=  581632KiB time=00:12:33.56 bitrate=6323.0kbits/s speed=1.17x    
frame=18838
fps=29.29
stream_0_0_q=23.0
bitrate=6323.0kbits/s
total_size=595591216
out_time_us=753560000
out_time_ms=753560000
out_time=00:12:33.560000
dup_frames=0
drop_frames=0
speed=1.17x
progress=continue
frame=18978 fps= 29 q=23.0 size=  586240KiB time=00:12:39.16 bitrate=6326.0kbits/s speed=1.17x    
frame=18978
fps=29.28
stream_0_0_q=23.0
bitrate=6326.0kbits/s
total_size=600309808
out_time_us=759160000
out_time_ms=759160000
out_time=00:12:39.160000
dup_frames=0
drop_frames=0
speed=1.17x
progress=continue
frame=19111 fps= 29 q=23.0 size=  590336KiB time=00:12:44.48 bitrate=6325.9kbits/s speed=1.17x    
frame=19111
fps=29.25
stream_0_0_q=23.0
bitrate=6325.9kbits/s
total_size=604504112
out_time_us=764480000
out_time_ms=764480000
out_time=00:12:44.480000
dup_frames=0
drop_frames=0
speed=1.17x
progress=continue
frame=19234 fps= 29 q=23.0 size=  593920KiB time=00:12:49.40 bitrate=6323.6kbits/s speed=1.17x    
frame=19234
fps=29.22
stream_0_0_q=23.0
bitrate=6323.6kbits/s
total_size=608174128
out_time_us=769400000
out_time_ms=769400000
out_time=00:12:49.400000
dup_frames=0
drop_frames=0
speed=1.17x
progress=continue
frame=19374 fps= 29 q=23.0 size=  598272KiB time=00:12:55.00 bitrate=6323.9kbits/s speed=1.17x    
frame=19374
fps=29.21
stream_0_0_q=23.0
bitrate=6323.9kbits/s
total_size=612630576
out_time_us=775000000
out_time_ms=775000000
out_time=00:12:55.000000
dup_frames=0
drop_frames=0
speed=1.17x
progress=continue
frame=19523 fps= 29 q=23.0 size=  602880KiB time=00:13:00.96 bitrate=6324.0kbits/s speed=1.17x    
frame=19523
fps=29.21
stream_0_0_q=23.0
bitrate=6324.0kbits/s
total_size=617349168
out_time_us=780960000
out_time_ms=780960000
out_time=00:13:00.960000
dup_frames=0
drop_frames=0
speed=1.17x
progress=continue
frame=19682 fps= 29 q=23.0 size=  607488KiB time=00:13:07.32 bitrate=6320.9kbits/s speed=1.17x    
frame=19682
fps=29.23
stream_0_0_q=23.0
bitrate=6320.9kbits/s
total_size=622067760
out_time_us=787320000
out_time_ms=787320000
out_time=00:13:07.320000
dup_frames=0
drop_frames=0
speed=1.17x
progress=continue
frame=19856 fps= 29 q=23.0 size=  612352KiB time=00:13:14.28 bitrate=6315.6kbits/s speed=1.17x    
frame=19856
fps=29.27
stream_0_0_q=23.0
bitrate=6315.6kbits/s
total_size=627048496
out_time_us=794280000
out_time_ms=794280000
out_time=00:13:14.280000
dup_frames=0
drop_frames=0
speed=1.17x
progress=continue
frame=20055 fps= 29 q=23.0 size=  617984KiB time=00:13:22.24 bitrate=6310.5kbits/s speed=1.17x    
frame=20055
fps=29.35
stream_0_0_q=23.0
bitrate=6310.5kbits/s
total_size=632815664
out_time_us=802240000
out_time_ms=802240000
out_time=00:13:22.240000
dup_frames=0
drop_frames=0
speed=1.17x
progress=continue
frame=20268 fps= 29 q=23.0 size=  623104KiB time=00:13:30.76 bitrate=6295.9kbits/s speed=1.18x    
frame=20268
fps=29.44
stream_0_0_q=23.0
bitrate=6295.9kbits/s
total_size=638058544
out_time_us=810760000
out_time_ms=810760000
out_time=00:13:30.760000
dup_frames=0
drop_frames=0
speed=1.18x
progress=continue
frame=20496 fps= 30 q=23.0 size=  628992KiB time=00:13:39.88 bitrate=6284.7kbits/s speed=1.18x    
frame=20496
fps=29.56
stream_0_0_q=23.0
bitrate=6284.7kbits/s
total_size=644087856
out_time_us=819880000
out_time_ms=819880000
out_time=00:13:39.880000
dup_frames=0
drop_frames=0
speed=1.18x
progress=continue
frame=20696 fps= 30 q=23.0 size=  635136KiB time=00:13:47.88 bitrate=6284.8kbits/s speed=1.19x    
frame=20696
fps=29.63
stream_0_0_q=23.0
bitrate=6284.8kbits/s
total_size=650379312
out_time_us=827880000
out_time_ms=827880000
out_time=00:13:47.880000
dup_frames=0
drop_frames=0
speed=1.19x
progress=continue
frame=20853 fps= 30 q=23.0 size=  639488KiB time=00:13:54.16 bitrate=6280.2kbits/s speed=1.19x    
frame=20853
fps=29.64
stream_0_0_q=23.0
bitrate=6280.2kbits/s
total_size=654835760
out_time_us=834160000
out_time_ms=834160000
out_time=00:13:54.160000
dup_frames=0
drop_frames=0
speed=1.19x
progress=continue
frame=20989 fps= 30 q=23.0 size=  644096KiB time=00:13:59.60 bitrate=6284.5kbits/s speed=1.19x    
frame=20989
fps=29.63
stream_0_0_q=23.0
bitrate=6284.5kbits/s
total_size=659554352
out_time_us=839600000
out_time_ms=839600000
out_time=00:13:59.600000
dup_frames=0
drop_frames=0
speed=1.19x
progress=continue
frame=21149 fps= 30 q=23.0 size=  648704KiB time=00:14:06.00 bitrate=6281.5kbits/s speed=1.19x    
frame=21149
fps=29.64
stream_0_0_q=23.0
bitrate=6281.5kbits/s
total_size=664272944
out_time_us=846000000
out_time_ms=846000000
out_time=00:14:06.000000
dup_frames=0
drop_frames=0
speed=1.19x
progress=continue
frame=21329 fps= 30 q=23.0 size=  653312KiB time=00:14:13.20 bitrate=6272.8kbits/s speed=1.19x    
frame=21329
fps=29.68
stream_0_0_q=23.0
bitrate=6272.8kbits/s
total_size=668991536
out_time_us=853200000
out_time_ms=853200000
out_time=00:14:13.200000
dup_frames=0
drop_frames=0
speed=1.19x
progress=continue
frame=21474 fps= 30 q=23.0 size=  657408KiB time=00:14:19.00 bitrate=6269.5kbits/s speed=1.19x    
frame=21474
fps=29.68
stream_0_0_q=23.0
bitrate=6269.5kbits/s
total_size=673185840
out_time_us=859000000
out_time_ms=859000000
out_time=00:14:19.000000
dup_frames=0
drop_frames=0
speed=1.19x
progress=continue
frame=21604 fps= 30 q=23.0 size=  660480KiB time=00:14:24.20 bitrate=6260.9kbits/s speed=1.19x    
frame=21604
fps=29.65
stream_0_0_q=23.0
bitrate=6260.9kbits/s
total_size=676331568
out_time_us=864200000
out_time_ms=864200000
out_time=00:14:24.200000
dup_frames=0
drop_frames=0
speed=1.19x
progress=continue
frame=21736 fps= 30 q=23.0 size=  663552KiB time=00:14:29.48 bitrate=6251.8kbits/s speed=1.19x    
frame=21736
fps=29.63
stream_0_0_q=23.0
bitrate=6251.8kbits/s
total_size=679477296
out_time_us=869480000
out_time_ms=869480000
out_time=00:14:29.480000
dup_frames=0
drop_frames=0
speed=1.19x
progress=continue
frame=21855 fps= 30 q=23.0 size=  666880KiB time=00:14:34.24 bitrate=6248.9kbits/s speed=1.18x    
frame=21855
fps=29.59
stream_0_0_q=23.0
bitrate=6248.9kbits/s
total_size=682885168
out_time_us=874240000
out_time_ms=874240000
out_time=00:14:34.240000
dup_frames=0
drop_frames=0
speed=1.18x
progress=continue
frame=21991 fps= 30 q=23.0 size=  669952KiB time=00:14:39.68 bitrate=6238.9kbits/s speed=1.18x    
frame=21991
fps=29.57
stream_0_0_q=23.0
bitrate=6238.9kbits/s
total_size=686030896
out_time_us=879680000
out_time_ms=879680000
out_time=00:14:39.680000
dup_frames=0
drop_frames=0
speed=1.18x
progress=continue
frame=22117 fps= 30 q=23.0 size=  673024KiB time=00:14:44.72 bitrate=6231.8kbits/s speed=1.18x    
frame=22117
fps=29.54
stream_0_0_q=23.0
bitrate=6231.8kbits/s
total_size=689176624
out_time_us=884720000
out_time_ms=884720000
out_time=00:14:44.720000
dup_frames=0
drop_frames=0
speed=1.18x
progress=continue
frame=22243 fps= 30 q=23.0 size=  675840KiB time=00:14:49.76 bitrate=6222.4kbits/s speed=1.18x    
frame=22243
fps=29.51
stream_0_0_q=23.0
bitrate=6222.4kbits/s
total_size=692060208
out_time_us=889760000
out_time_ms=889760000
out_time=00:14:49.760000
dup_frames=0
drop_frames=0
speed=1.18x
progress=continue
frame=22370 fps= 29 q=23.0 size=  678912KiB time=00:14:54.84 bitrate=6215.2kbits/s speed=1.18x    
frame=22370
fps=29.48
stream_0_0_q=23.0
bitrate=6215.2kbits/s
total_size=695205936
out_time_us=894840000
out_time_ms=894840000
out_time=00:14:54.840000
dup_frames=0
drop_frames=0
speed=1.18x
progress=continue
frame=22509 fps= 29 q=23.0 size=  683264KiB time=00:15:00.40 bitrate=6216.5kbits/s speed=1.18x    
frame=22509
fps=29.47
stream_0_0_q=23.0
bitrate=6216.5kbits/s
total_size=699662384
out_time_us=900400000
out_time_ms=900400000
out_time=00:15:00.400000
dup_frames=0
drop_frames=0
speed=1.18x
progress=continue
frame=22639 fps= 29 q=23.0 size=  686592KiB time=00:15:05.60 bitrate=6210.9kbits/s speed=1.18x    
frame=22639
fps=29.45
stream_0_0_q=23.0
bitrate=6210.9kbits/s
total_size=703070256
out_time_us=905600000
out_time_ms=905600000
out_time=00:15:05.600000
dup_frames=0
drop_frames=0
speed=1.18x
progress=continue
frame=22756 fps= 29 q=23.0 size=  690688KiB time=00:15:10.28 bitrate=6215.8kbits/s speed=1.18x    
frame=22756
fps=29.41
stream_0_0_q=23.0
bitrate=6215.8kbits/s
total_size=707264560
out_time_us=910280000
out_time_ms=910280000
out_time=00:15:10.280000
dup_frames=0
drop_frames=0
speed=1.18x
progress=continue
frame=22892 fps= 29 q=23.0 size=  695040KiB time=00:15:15.72 bitrate=6217.8kbits/s speed=1.18x    
frame=22892
fps=29.39
stream_0_0_q=23.0
bitrate=6217.8kbits/s
total_size=711721008
out_time_us=915720000
out_time_ms=915720000
out_time=00:15:15.720000
dup_frames=0
drop_frames=0
speed=1.18x
progress=continue
frame=23030 fps= 29 q=23.0 size=  698368KiB time=00:15:21.24 bitrate=6210.1kbits/s speed=1.18x    
frame=23030
fps=29.38
stream_0_0_q=23.0
bitrate=6210.1kbits/s
total_size=715128880
out_time_us=921240000
out_time_ms=921240000
out_time=00:15:21.240000
dup_frames=0
drop_frames=0
speed=1.18x
progress=continue
frame=23159 fps= 29 q=23.0 size=  701440KiB time=00:15:26.40 bitrate=6202.7kbits/s speed=1.17x    
frame=23159
fps=29.36
stream_0_0_q=23.0
bitrate=6202.7kbits/s
total_size=718274608
out_time_us=926400000
out_time_ms=926400000
out_time=00:15:26.400000
dup_frames=0
drop_frames=0
speed=1.17x
progress=continue
frame=23308 fps= 29 q=23.0 size=  705280KiB time=00:15:32.36 bitrate=6196.8kbits/s speed=1.17x    
frame=23308
fps=29.36
stream_0_0_q=23.0
bitrate=6196.8kbits/s
total_size=722206768
out_time_us=932360000
out_time_ms=932360000
out_time=00:15:32.360000
dup_frames=0
drop_frames=0
speed=1.17x
progress=continue
frame=23464 fps= 29 q=23.0 size=  709632KiB time=00:15:38.60 bitrate=6193.6kbits/s speed=1.17x    
frame=23464
fps=29.37
stream_0_0_q=23.0
bitrate=6193.6kbits/s
total_size=726663216
out_time_us=938600000
out_time_ms=938600000
out_time=00:15:38.600000
dup_frames=0
drop_frames=0
speed=1.17x
progress=continue
frame=23645 fps= 29 q=23.0 size=  712704KiB time=00:15:45.80 bitrate=6173.1kbits/s speed=1.18x    
frame=23645
fps=29.41
stream_0_0_q=23.0
bitrate=6173.1kbits/s
total_size=729808944
out_time_us=945800000
out_time_ms=945800000
out_time=00:15:45.800000
dup_frames=0
drop_frames=0
speed=1.18x
progress=continue
frame=23835 fps= 29 q=23.0 size=  716288KiB time=00:15:53.44 bitrate=6154.4kbits/s speed=1.18x    
frame=23835
fps=29.46
stream_0_0_q=23.0
bitrate=6154.4kbits/s
total_size=733478960
out_time_us=953440000
out_time_ms=953440000
out_time=00:15:53.440000
dup_frames=0
drop_frames=0
speed=1.18x
progress=continue
frame=24057 fps= 30 q=23.0 size=  719616KiB time=00:16:02.32 bitrate=6125.9kbits/s speed=1.18x    
frame=24057
fps=29.55
stream_0_0_q=23.0
bitrate=6125.9kbits/s
total_size=736886832
out_time_us=962320000
out_time_ms=962320000
out_time=00:16:02.320000
dup_frames=0
drop_frames=0
speed=1.18x
progress=continue
frame=24256 fps= 30 q=23.0 size=  723200KiB time=00:16:10.28 bitrate=6105.9kbits/s speed=1.18x    
frame=24256
fps=29.62
stream_0_0_q=23.0
bitrate=6105.9kbits/s
total_size=740556848
out_time_us=970280000
out_time_ms=970280000
out_time=00:16:10.280000
dup_frames=0
drop_frames=0
speed=1.18x
progress=continue
frame=24448 fps= 30 q=23.0 size=  726272KiB time=00:16:17.96 bitrate=6083.7kbits/s speed=1.19x    
frame=24448
fps=29.67
stream_0_0_q=23.0
bitrate=6083.7kbits/s
total_size=743702576
out_time_us=977960000
out_time_ms=977960000
out_time=00:16:17.960000
dup_frames=0
drop_frames=0
speed=1.19x
progress=continue
frame=24572 fps= 30 q=23.0 size=  728832KiB time=00:16:22.92 bitrate=6074.3kbits/s speed=1.19x    
frame=24572
fps=29.64
stream_0_0_q=23.0
bitrate=6074.3kbits/s
total_size=746324016
out_time_us=982920000
out_time_ms=982920000
out_time=00:16:22.920000
dup_frames=0
drop_frames=0
speed=1.19x
progress=continue
frame=24728 fps= 30 q=23.0 size=  732160KiB time=00:16:29.16 bitrate=6063.6kbits/s speed=1.19x    
frame=24728
fps=29.65
stream_0_0_q=23.0
bitrate=6063.6kbits/s
total_size=749731888
out_time_us=989160000
out_time_ms=989160000
out_time=00:16:29.160000
dup_frames=0
drop_frames=0
speed=1.19x
progress=continue
frame=24906 fps= 30 q=23.0 size=  735232KiB time=00:16:36.28 bitrate=6045.5kbits/s speed=1.19x    
frame=24906
fps=29.68
stream_0_0_q=23.0
bitrate=6045.5kbits/s
total_size=752877616
out_time_us=996280000
out_time_ms=996280000
out_time=00:16:36.280000
dup_frames=0
drop_frames=0
speed=1.19x
progress=continue
frame=25093 fps= 30 q=23.0 size=  738048KiB time=00:16:43.76 bitrate=6023.4kbits/s speed=1.19x    
frame=25093
fps=29.73
stream_0_0_q=23.0
bitrate=6023.4kbits/s
total_size=755761200
out_time_us=1003760000
out_time_ms=1003760000
out_time=00:16:43.760000
dup_frames=0
drop_frames=0
speed=1.19x
progress=continue
frame=25236 fps= 30 q=23.0 size=  741376KiB time=00:16:49.48 bitrate=6016.3kbits/s speed=1.19x    
frame=25236
fps=29.72
stream_0_0_q=23.0
bitrate=6016.3kbits/s
total_size=759169072
out_time_us=1009480000
out_time_ms=1009480000
out_time=00:16:49.480000
dup_frames=0
drop_frames=0
speed=1.19x
progress=continue
frame=25370 fps= 30 q=23.0 size=  746496KiB time=00:16:54.80 bitrate=6026.1kbits/s speed=1.19x    
frame=25370
fps=29.70
stream_0_0_q=23.0
bitrate=6026.1kbits/s
total_size=764411952
out_time_us=1014800000
out_time_ms=1014800000
out_time=00:16:54.800000
dup_frames=0
drop_frames=0
speed=1.19x
progress=continue
frame=25509 fps= 30 q=23.0 size=  751104KiB time=00:17:00.40 bitrate=6030.0kbits/s speed=1.19x    
frame=25509
fps=29.69
stream_0_0_q=23.0
bitrate=6030.0kbits/s
total_size=769130544
out_time_us=1020400000
out_time_ms=1020400000
out_time=00:17:00.400000
dup_frames=0
drop_frames=0
speed=1.19x
progress=continue
frame=25641 fps= 30 q=23.0 size=  755712KiB time=00:17:05.68 bitrate=6035.8kbits/s speed=1.19x    
frame=25641
fps=29.67
stream_0_0_q=23.0
bitrate=6035.8kbits/s
total_size=773849136
out_time_us=1025680000
out_time_ms=1025680000
out_time=00:17:05.680000
dup_frames=0
drop_frames=0
speed=1.19x
progress=continue
frame=25780 fps= 30 q=23.0 size=  760064KiB time=00:17:11.24 bitrate=6037.8kbits/s speed=1.19x    
frame=25780
fps=29.66
stream_0_0_q=23.0
bitrate=6037.8kbits/s
total_size=778305584
out_time_us=1031240000
out_time_ms=1031240000
out_time=00:17:11.240000
dup_frames=0
drop_frames=0
speed=1.19x
progress=continue
frame=25925 fps= 30 q=23.0 size=  765440KiB time=00:17:17.04 bitrate=6046.5kbits/s speed=1.19x    
frame=25925
fps=29.65
stream_0_0_q=23.0
bitrate=6046.5kbits/s
total_size=783810608
out_time_us=1037040000
out_time_ms=1037040000
out_time=00:17:17.040000
dup_frames=0
drop_frames=0
speed=1.19x
progress=continue
frame=26115 fps= 30 q=20.0 size=  770560KiB time=00:17:24.64 bitrate=6042.7kbits/s speed=1.19x    
frame=26115
fps=29.70
stream_0_0_q=20.0
bitrate=6042.7kbits/s
total_size=789053488
out_time_us=1044640000
out_time_ms=1044640000
out_time=00:17:24.640000
dup_frames=0
drop_frames=0
speed=1.19x
progress=continue
frame=26242 fps= 30 q=23.0 size=  775168KiB time=00:17:29.72 bitrate=6049.4kbits/s speed=1.19x    
frame=26242
fps=29.68
stream_0_0_q=23.0
bitrate=6049.4kbits/s
total_size=793772080
out_time_us=1049720000
out_time_ms=1049720000
out_time=00:17:29.720000
dup_frames=0
drop_frames=0
speed=1.19x
progress=continue
frame=26436 fps= 30 q=23.0 size=  780544KiB time=00:17:37.48 bitrate=6046.7kbits/s speed=1.19x    
frame=26436
fps=29.73
stream_0_0_q=23.0
bitrate=6046.7kbits/s
total_size=799277104
out_time_us=1057480000
out_time_ms=1057480000
out_time=00:17:37.480000
dup_frames=0
drop_frames=0
speed=1.19x
progress=continue
frame=26565 fps= 30 q=20.0 size=  785408KiB time=00:17:42.64 bitrate=6054.8kbits/s speed=1.19x    
frame=26565
fps=29.70
stream_0_0_q=20.0
bitrate=6054.8kbits/s
total_size=804257840
out_time_us=1062640000
out_time_ms=1062640000
out_time=00:17:42.640000
dup_frames=0
drop_frames=0
speed=1.19x
progress=continue
frame=26692 fps= 30 q=23.0 size=  790272KiB time=00:17:47.72 bitrate=6063.3kbits/s speed=1.19x    
frame=26692
fps=29.68
stream_0_0_q=23.0
bitrate=6063.3kbits/s
total_size=809238576
out_time_us=1067720000
out_time_ms=1067720000
out_time=00:17:47.720000
dup_frames=0
drop_frames=0
speed=1.19x
progress=continue
frame=26827 fps= 30 q=23.0 size=  795136KiB time=00:17:53.12 bitrate=6069.9kbits/s speed=1.19x    
frame=26827
fps=29.66
stream_0_0_q=23.0
bitrate=6069.9kbits/s
total_size=814219312
out_time_us=1073120000
out_time_ms=1073120000
out_time=00:17:53.120000
dup_frames=0
drop_frames=0
speed=1.19x
progress=continue
frame=26955 fps= 30 q=23.0 size=  799744KiB time=00:17:58.24 bitrate=6076.1kbits/s speed=1.19x    
frame=26955
fps=29.64
stream_0_0_q=23.0
bitrate=6076.1kbits/s
total_size=818937904
out_time_us=1078240000
out_time_ms=1078240000
out_time=00:17:58.240000
dup_frames=0
drop_frames=0
speed=1.19x
progress=continue
frame=27083 fps= 30 q=23.0 size=  803840KiB time=00:18:03.36 bitrate=6078.4kbits/s speed=1.18x    
frame=27083
fps=29.62
stream_0_0_q=23.0
bitrate=6078.4kbits/s
total_size=823132208
out_time_us=1083360000
out_time_ms=1083360000
out_time=00:18:03.360000
dup_frames=0
drop_frames=0
speed=1.18x
progress=continue
frame=27203 fps= 30 q=23.0 size=  807680KiB time=00:18:08.16 bitrate=6080.5kbits/s speed=1.18x    
frame=27203
fps=29.59
stream_0_0_q=23.0
bitrate=6080.5kbits/s
total_size=827064368
out_time_us=1088160000
out_time_ms=1088160000
out_time=00:18:08.160000
dup_frames=0
drop_frames=0
speed=1.18x
progress=continue
frame=27336 fps= 30 q=23.0 size=  813056KiB time=00:18:13.48 bitrate=6091.2kbits/s speed=1.18x    
frame=27336
fps=29.57
stream_0_0_q=23.0
bitrate=6091.2kbits/s
total_size=832569392
out_time_us=1093480000
out_time_ms=1093480000
out_time=00:18:13.480000
dup_frames=0
drop_frames=0
speed=1.18x
progress=continue
frame=27470 fps= 30 q=23.0 size=  817920KiB time=00:18:18.84 bitrate=6097.7kbits/s speed=1.18x    
frame=27470
fps=29.55
stream_0_0_q=23.0
bitrate=6097.7kbits/s
total_size=837550128
out_time_us=1098840000
out_time_ms=1098840000
out_time=00:18:18.840000
dup_frames=0
drop_frames=0
speed=1.18x
progress=continue
frame=27605 fps= 30 q=23.0 size=  822528KiB time=00:18:24.24 bitrate=6102.1kbits/s speed=1.18x    
frame=27605
fps=29.54
stream_0_0_q=23.0
bitrate=6102.1kbits/s
total_size=842268720
out_time_us=1104240000
out_time_ms=1104240000
out_time=00:18:24.240000
dup_frames=0
drop_frames=0
speed=1.18x
progress=continue
frame=27742 fps= 30 q=23.0 size=  826624KiB time=00:18:29.72 bitrate=6102.2kbits/s speed=1.18x    
frame=27742
fps=29.53
stream_0_0_q=23.0
bitrate=6102.2kbits/s
total_size=846463024
out_time_us=1109720000
out_time_ms=1109720000
out_time=00:18:29.720000
dup_frames=0
drop_frames=0
speed=1.18x
progress=continue
frame=27869 fps= 30 q=23.0 size=  831744KiB time=00:18:34.80 bitrate=6112.0kbits/s speed=1.18x    
frame=27869
fps=29.50
stream_0_0_q=23.0
bitrate=6112.0kbits/s
total_size=851705904
out_time_us=1114800000
out_time_ms=1114800000
out_time=00:18:34.800000
dup_frames=0
drop_frames=0
speed=1.18x
progress=continue
frame=27996 fps= 29 q=23.0 size=  837632KiB time=00:18:39.88 bitrate=6127.3kbits/s speed=1.18x    
frame=27996
fps=29.48
stream_0_0_q=23.0
bitrate=6127.3kbits/s
total_size=857735216
out_time_us=1119880000
out_time_ms=1119880000
out_time=00:18:39.880000
dup_frames=0
drop_frames=0
speed=1.18x
progress=continue
frame=28129 fps= 29 q=23.0 size=  843520KiB time=00:18:45.20 bitrate=6141.2kbits/s speed=1.18x    
frame=28129
fps=29.47
stream_0_0_q=23.0
bitrate=6141.2kbits/s
total_size=863764528
out_time_us=1125200000
out_time_ms=1125200000
out_time=00:18:45.200000
dup_frames=0
drop_frames=0
speed=1.18x
progress=continue
frame=28249 fps= 29 q=23.0 size=  848640KiB time=00:18:50.00 bitrate=6152.3kbits/s speed=1.18x    
frame=28249
fps=29.44
stream_0_0_q=23.0
bitrate=6152.3kbits/s
total_size=869007408
out_time_us=1130000000
out_time_ms=1130000000
out_time=00:18:50.000000
dup_frames=0
drop_frames=0
speed=1.18x
progress=continue
frame=28359 fps= 29 q=23.0 size=  853248KiB time=00:18:54.40 bitrate=6161.7kbits/s speed=1.18x    
frame=28359
fps=29.40
stream_0_0_q=23.0
bitrate=6161.7kbits/s
total_size=873726000
out_time_us=1134400000
out_time_ms=1134400000
out_time=00:18:54.400000
dup_frames=0
drop_frames=0
speed=1.18x
progress=continue
frame=28484 fps= 29 q=23.0 size=  859648KiB time=00:18:59.40 bitrate=6180.7kbits/s speed=1.18x    
frame=28484
fps=29.38
stream_0_0_q=23.0
bitrate=6180.7kbits/s
total_size=880279600
out_time_us=1139400000
out_time_ms=1139400000
out_time=00:18:59.400000
dup_frames=0
drop_frames=0
speed=1.18x
progress=continue
frame=28612 fps= 29 q=23.0 size=  863744KiB time=00:19:04.52 bitrate=6182.3kbits/s speed=1.17x    
frame=28612
fps=29.36
stream_0_0_q=23.0
bitrate=6182.3kbits/s
total_size=884473904
out_time_us=1144520000
out_time_ms=1144520000
out_time=00:19:04.520000
dup_frames=0
drop_frames=0
speed=1.17x
progress=continue
frame=28753 fps= 29 q=23.0 size=  868608KiB time=00:19:10.16 bitrate=6186.6kbits/s speed=1.17x    
frame=28753
fps=29.35
stream_0_0_q=23.0
bitrate=6186.6kbits/s
total_size=889454640
out_time_us=1150160000
out_time_ms=1150160000
out_time=00:19:10.160000
dup_frames=0
drop_frames=0
speed=1.17x
progress=continue
frame=28906 fps= 29 q=23.0 size=  873216KiB time=00:19:16.28 bitrate=6186.6kbits/s speed=1.17x    
frame=28906
fps=29.35
stream_0_0_q=23.0
bitrate=6186.6kbits/s
total_size=894173232
out_time_us=1156280000
out_time_ms=1156280000
out_time=00:19:16.280000
dup_frames=0
drop_frames=0
speed=1.17x
progress=continue
frame=29055 fps= 29 q=23.0 size=  877824KiB time=00:19:22.24 bitrate=6187.3kbits/s speed=1.17x    
frame=29055
fps=29.36
stream_0_0_q=23.0
bitrate=6187.3kbits/s
total_size=898891824
out_time_us=1162240000
out_time_ms=1162240000
out_time=00:19:22.240000
dup_frames=0
drop_frames=0
speed=1.17x
progress=continue
frame=29195 fps= 29 q=23.0 size=  881664KiB time=00:19:27.84 bitrate=6184.6kbits/s speed=1.17x    
frame=29195
fps=29.35
stream_0_0_q=23.0
bitrate=6184.6kbits/s
total_size=902823984
out_time_us=1167840000
out_time_ms=1167840000
out_time=00:19:27.840000
dup_frames=0
drop_frames=0
speed=1.17x
progress=continue
frame=29321 fps= 29 q=23.0 size=  887040KiB time=00:19:32.88 bitrate=6195.5kbits/s speed=1.17x    
frame=29321
fps=29.33
stream_0_0_q=23.0
bitrate=6195.5kbits/s
total_size=908329008
out_time_us=1172880000
out_time_ms=1172880000
out_time=00:19:32.880000
dup_frames=0
drop_frames=0
speed=1.17x
progress=continue
frame=29458 fps= 29 q=23.0 size=  892928KiB time=00:19:38.36 bitrate=6207.7kbits/s speed=1.17x    
frame=29458
fps=29.32
stream_0_0_q=23.0
bitrate=6207.7kbits/s
total_size=914358320
out_time_us=1178360000
out_time_ms=1178360000
out_time=00:19:38.360000
dup_frames=0
drop_frames=0
speed=1.17x
progress=continue
frame=29609 fps= 29 q=23.0 size=  897024KiB time=00:19:44.40 bitrate=6204.3kbits/s speed=1.17x    
frame=29609
fps=29.32
stream_0_0_q=23.0
bitrate=6204.3kbits/s
total_size=918552624
out_time_us=1184400000
out_time_ms=1184400000
out_time=00:19:44.400000
dup_frames=0
drop_frames=0
speed=1.17x
progress=continue
frame=29738 fps= 29 q=23.0 size=  902144KiB time=00:19:49.56 bitrate=6212.7kbits/s speed=1.17x    
frame=29738
fps=29.30
stream_0_0_q=23.0
bitrate=6212.7kbits/s
total_size=923795504
out_time_us=1189560000
out_time_ms=1189560000
out_time=00:19:49.560000
dup_frames=0
drop_frames=0
speed=1.17x
progress=continue
frame=29886 fps= 29 q=23.0 size=  907008KiB time=00:19:55.40 bitrate=6215.7kbits/s speed=1.17x    
frame=29886
fps=29.30
stream_0_0_q=23.0
bitrate=6215.7kbits/s
total_size=928776240
out_time_us=1195400000
out_time_ms=1195400000
out_time=00:19:55.400000
dup_frames=0
drop_frames=0
speed=1.17x
progress=continue
frame=30012 fps= 29 q=23.0 size=  911360KiB time=00:20:00.52 bitrate=6218.9kbits/s speed=1.17x    
frame=30012
fps=29.28
stream_0_0_q=23.0
bitrate=6218.9kbits/s
total_size=933232688
out_time_us=1200520000
out_time_ms=1200520000
out_time=00:20:00.520000
dup_frames=0
drop_frames=0
speed=1.17x
progress=continue
frame=30120 fps= 29 q=23.0 size=  915200KiB time=00:20:04.84 bitrate=6222.7kbits/s speed=1.17x    
frame=30120
fps=29.24
stream_0_0_q=23.0
bitrate=6222.7kbits/s
total_size=937164848
out_time_us=1204840000
out_time_ms=1204840000
out_time=00:20:04.840000
dup_frames=0
drop_frames=0
speed=1.17x
progress=continue
frame=30242 fps= 29 q=23.0 size=  919552KiB time=00:20:09.72 bitrate=6227.0kbits/s speed=1.17x    
frame=30242
fps=29.22
stream_0_0_q=23.0
bitrate=6227.0kbits/s
total_size=941621296
out_time_us=1209720000
out_time_ms=1209720000
out_time=00:20:09.720000
dup_frames=0
drop_frames=0
speed=1.17x
progress=continue
frame=30365 fps= 29 q=20.0 size=  924160KiB time=00:20:14.64 bitrate=6232.9kbits/s speed=1.17x    
frame=30365
fps=29.20
stream_0_0_q=20.0
bitrate=6232.9kbits/s
total_size=946339888
out_time_us=1214640000
out_time_ms=1214640000
out_time=00:20:14.640000
dup_frames=0
drop_frames=0
speed=1.17x
progress=continue
frame=30494 fps= 29 q=23.0 size=  928768KiB time=00:20:19.80 bitrate=6237.5kbits/s speed=1.17x    
frame=30494
fps=29.18
stream_0_0_q=23.0
bitrate=6237.5kbits/s
total_size=951058480
out_time_us=1219800000
out_time_ms=1219800000
out_time=00:20:19.800000
dup_frames=0
drop_frames=0
speed=1.17x
progress=continue
frame=30625 fps= 29 q=23.0 size=  933376KiB time=00:20:25.04 bitrate=6241.6kbits/s speed=1.17x    
frame=30625
fps=29.17
stream_0_0_q=23.0
bitrate=6241.6kbits/s
total_size=955777072
out_time_us=1225040000
out_time_ms=1225040000
out_time=00:20:25.040000
dup_frames=0
drop_frames=0
speed=1.17x
progress=continue
frame=30754 fps= 29 q=23.0 size=  937728KiB time=00:20:30.16 bitrate=6244.6kbits/s speed=1.17x    
frame=30754
fps=29.15
stream_0_0_q=23.0
bitrate=6244.6kbits/s
total_size=960233520
out_time_us=1230160000
out_time_ms=1230160000
out_time=00:20:30.160000
dup_frames=0
drop_frames=0
speed=1.17x
progress=continue
frame=30878 fps= 29 q=23.0 size=  942080KiB time=00:20:35.16 bitrate=6248.2kbits/s speed=1.17x    
frame=30878
fps=29.13
stream_0_0_q=23.0
bitrate=6248.2kbits/s
total_size=964689968
out_time_us=1235160000
out_time_ms=1235160000
out_time=00:20:35.160000
dup_frames=0
drop_frames=0
speed=1.17x
progress=continue
frame=31007 fps= 29 q=23.0 size=  946176KiB time=00:20:40.32 bitrate=6249.3kbits/s speed=1.16x    
frame=31007
fps=29.11
stream_0_0_q=23.0
bitrate=6249.3kbits/s
total_size=968884272
out_time_us=1240320000
out_time_ms=1240320000
out_time=00:20:40.320000
dup_frames=0
drop_frames=0
speed=1.16x
progress=continue
frame=31133 fps= 29 q=23.0 size=  950016KiB time=00:20:45.36 bitrate=6249.2kbits/s speed=1.16x    
frame=31133
fps=29.09
stream_0_0_q=23.0
bitrate=6249.2kbits/s
total_size=972816432
out_time_us=1245360000
out_time_ms=1245360000
out_time=00:20:45.360000
dup_frames=0
drop_frames=0
speed=1.16x
progress=continue
frame=31258 fps= 29 q=23.0 size=  953600KiB time=00:20:50.36 bitrate=6247.7kbits/s speed=1.16x    
frame=31258
fps=29.07
stream_0_0_q=23.0
bitrate=6247.7kbits/s
total_size=976486448
out_time_us=1250360000
out_time_ms=1250360000
out_time=00:20:50.360000
dup_frames=0
drop_frames=0
speed=1.16x
progress=continue
frame=31408 fps= 29 q=23.0 size=  957184KiB time=00:20:56.36 bitrate=6241.2kbits/s speed=1.16x    
frame=31408
fps=29.08
stream_0_0_q=23.0
bitrate=6241.2kbits/s
total_size=980156464
out_time_us=1256360000
out_time_ms=1256360000
out_time=00:20:56.360000
dup_frames=0
drop_frames=0
speed=1.16x
progress=continue
frame=31561 fps= 29 q=23.0 size=  960512KiB time=00:21:02.48 bitrate=6232.6kbits/s speed=1.16x    
frame=31561
fps=29.09
stream_0_0_q=23.0
bitrate=6232.6kbits/s
total_size=983564336
out_time_us=1262480000
out_time_ms=1262480000
out_time=00:21:02.480000
dup_frames=0
drop_frames=0
speed=1.16x
progress=continue
frame=31704 fps= 29 q=23.0 size=  964864KiB time=00:21:08.20 bitrate=6232.6kbits/s speed=1.16x    
frame=31704
fps=29.08
stream_0_0_q=23.0
bitrate=6232.6kbits/s
total_size=988020784
out_time_us=1268200000
out_time_ms=1268200000
out_time=00:21:08.200000
dup_frames=0
drop_frames=0
speed=1.16x
progress=continue
frame=31832 fps= 29 q=23.0 size=  969472KiB time=00:21:13.32 bitrate=6237.2kbits/s speed=1.16x    
frame=31832
fps=29.07
stream_0_0_q=23.0
bitrate=6237.2kbits/s
total_size=992739376
out_time_us=1273320000
out_time_ms=1273320000
out_time=00:21:13.320000
dup_frames=0
drop_frames=0
speed=1.16x
progress=continue
frame=31969 fps= 29 q=23.0 size=  974080KiB time=00:21:18.76 bitrate=6240.2kbits/s speed=1.16x    
frame=31969
fps=29.06
stream_0_0_q=23.0
bitrate=6240.2kbits/s
total_size=997457968
out_time_us=1278760000
out_time_ms=1278760000
out_time=00:21:18.760000
dup_frames=0
drop_frames=0
speed=1.16x
progress=continue
frame=32129 fps= 29 q=23.0 size=  978944KiB time=00:21:25.20 bitrate=6239.9kbits/s speed=1.16x    
frame=32129
fps=29.07
stream_0_0_q=23.0
bitrate=6239.9kbits/s
total_size=1002438704
out_time_us=1285200000
out_time_ms=1285200000
out_time=00:21:25.200000
dup_frames=0
drop_frames=0
speed=1.16x
progress=continue
frame=32299 fps= 29 q=23.0 size=  983808KiB time=00:21:32.00 bitrate=6237.9kbits/s speed=1.16x    
frame=32299
fps=29.09
stream_0_0_q=23.0
bitrate=6237.9kbits/s
total_size=1007419440
out_time_us=1292000000
out_time_ms=1292000000
out_time=00:21:32.000000
dup_frames=0
drop_frames=0
speed=1.16x
progress=continue
frame=32487 fps= 29 q=23.0 size=  988672KiB time=00:21:39.52 bitrate=6232.5kbits/s speed=1.17x    
frame=32487
fps=29.13
stream_0_0_q=23.0
bitrate=6232.5kbits/s
total_size=1012400176
out_time_us=1299520000
out_time_ms=1299520000
out_time=00:21:39.520000
dup_frames=0
drop_frames=0
speed=1.17x
progress=continue
frame=32662 fps= 29 q=23.0 size=  992512KiB time=00:21:46.52 bitrate=6223.1kbits/s speed=1.17x    
frame=32662
fps=29.15
stream_0_0_q=23.0
bitrate=6223.1kbits/s
total_size=1016332336
out_time_us=1306520000
out_time_ms=1306520000
out_time=00:21:46.520000
dup_frames=0
drop_frames=0
speed=1.17x
progress=continue
frame=32832 fps= 29 q=23.0 size=  996608KiB time=00:21:53.32 bitrate=6216.5kbits/s speed=1.17x    
frame=32832
fps=29.18
stream_0_0_q=23.0
bitrate=6216.5kbits/s
total_size=1020526640
out_time_us=1313320000
out_time_ms=1313320000
out_time=00:21:53.320000
dup_frames=0
drop_frames=0
speed=1.17x
progress=continue
frame=33011 fps= 29 q=23.0 size= 1001472KiB time=00:22:00.48 bitrate=6212.9kbits/s speed=1.17x    
frame=33011
fps=29.20
stream_0_0_q=23.0
bitrate=6212.9kbits/s
total_size=1025507376
out_time_us=1320480000
out_time_ms=1320480000
out_time=00:22:00.480000
dup_frames=0
drop_frames=0
speed=1.17x
progress=continue
frame=33168 fps= 29 q=23.0 size= 1006080KiB time=00:22:06.72 bitrate=6212.2kbits/s speed=1.17x    
frame=33168
fps=29.21
stream_0_0_q=23.0
bitrate=6212.2kbits/s
total_size=1030225968
out_time_us=1326720000
out_time_ms=1326720000
out_time=00:22:06.720000
dup_frames=0
drop_frames=0
speed=1.17x
progress=continue
frame=33306 fps= 29 q=23.0 size= 1010944KiB time=00:22:12.28 bitrate=6216.2kbits/s speed=1.17x    
frame=33306
fps=29.21
stream_0_0_q=23.0
bitrate=6216.2kbits/s
total_size=1035206704
out_time_us=1332280000
out_time_ms=1332280000
out_time=00:22:12.280000
dup_frames=0
drop_frames=0
speed=1.17x
progress=continue
frame=33485 fps= 29 q=23.0 size= 1015296KiB time=00:22:19.44 bitrate=6209.5kbits/s speed=1.17x    
frame=33485
fps=29.23
stream_0_0_q=23.0
bitrate=6209.5kbits/s
total_size=1039663152
out_time_us=1339440000
out_time_ms=1339440000
out_time=00:22:19.440000
dup_frames=0
drop_frames=0
speed=1.17x
progress=continue
frame=33646 fps= 29 q=23.0 size= 1019648KiB time=00:22:25.88 bitrate=6206.3kbits/s speed=1.17x    
frame=33646
fps=29.25
stream_0_0_q=23.0
bitrate=6206.3kbits/s
total_size=1044119600
out_time_us=1345880000
out_time_ms=1345880000
out_time=00:22:25.880000
dup_frames=0
drop_frames=0
speed=1.17x
progress=continue
frame=33782 fps= 29 q=23.0 size= 1024256KiB time=00:22:31.28 bitrate=6209.4kbits/s speed=1.17x    
frame=33782
fps=29.24
stream_0_0_q=23.0
bitrate=6209.4kbits/s
total_size=1048838192
out_time_us=1351280000
out_time_ms=1351280000
out_time=00:22:31.280000
dup_frames=0
drop_frames=0
speed=1.17x
progress=continue
frame=33933 fps= 29 q=23.0 size= 1028352KiB time=00:22:37.36 bitrate=6206.4kbits/s speed=1.17x    
frame=33933
fps=29.24
stream_0_0_q=23.0
bitrate=6206.4kbits/s
total_size=1053032496
out_time_us=1357360000
out_time_ms=1357360000
out_time=00:22:37.360000
dup_frames=0
drop_frames=0
speed=1.17x
progress=continue
frame=34064 fps= 29 q=23.0 size= 1032192KiB time=00:22:42.60 bitrate=6205.6kbits/s speed=1.17x    
frame=34064
fps=29.23
stream_0_0_q=23.0
bitrate=6205.6kbits/s
total_size=1056964656
out_time_us=1362600000
out_time_ms=1362600000
out_time=00:22:42.600000
dup_frames=0
drop_frames=0
speed=1.17x
progress=continue
frame=34210 fps= 29 q=23.0 size= 1036800KiB time=00:22:48.44 bitrate=6206.7kbits/s speed=1.17x    
frame=34210
fps=29.23
stream_0_0_q=23.0
bitrate=6206.7kbits/s
total_size=1061683248
out_time_us=1368440000
out_time_ms=1368440000
out_time=00:22:48.440000
dup_frames=0
drop_frames=0
speed=1.17x
progress=continue
frame=34340 fps= 29 q=20.0 size= 1039872KiB time=00:22:53.64 bitrate=6201.5kbits/s speed=1.17x    
frame=34340
fps=29.21
stream_0_0_q=20.0
bitrate=6201.5kbits/s
total_size=1064828976
out_time_us=1373640000
out_time_ms=1373640000
out_time=00:22:53.640000
dup_frames=0
drop_frames=0
speed=1.17x
progress=continue
frame=34479 fps= 29 q=23.0 size= 1043968KiB time=00:22:59.20 bitrate=6200.8kbits/s speed=1.17x    
frame=34479
fps=29.21
stream_0_0_q=23.0
bitrate=6200.8kbits/s
total_size=1069023280
out_time_us=1379200000
out_time_ms=1379200000
out_time=00:22:59.200000
dup_frames=0
drop_frames=0
speed=1.17x
progress=continue
frame=34603 fps= 29 q=23.0 size= 1047552KiB time=00:23:04.16 bitrate=6199.8kbits/s speed=1.17x    
frame=34603
fps=29.19
stream_0_0_q=23.0
bitrate=6199.8kbits/s
total_size=1072693296
out_time_us=1384160000
out_time_ms=1384160000
out_time=00:23:04.160000
dup_frames=0
drop_frames=0
speed=1.17x
progress=continue
frame=34758 fps= 29 q=23.0 size= 1050624KiB time=00:23:10.36 bitrate=6190.3kbits/s speed=1.17x    
frame=34758
fps=29.19
stream_0_0_q=23.0
bitrate=6190.3kbits/s
total_size=1075839024
out_time_us=1390360000
out_time_ms=1390360000
out_time=00:23:10.360000
dup_frames=0
drop_frames=0
speed=1.17x
progress=continue
frame=34862 fps= 29 q=23.0 size= 1055232KiB time=00:23:14.52 bitrate=6198.9kbits/s speed=1.17x    
frame=34862
fps=29.16
stream_0_0_q=23.0
bitrate=6198.9kbits/s
total_size=1080557616
out_time_us=1394520000
out_time_ms=1394520000
out_time=00:23:14.520000
dup_frames=0
drop_frames=0
speed=1.17x
progress=continue
frame=34978 fps= 29 q=23.0 size= 1060608KiB time=00:23:19.16 bitrate=6209.8kbits/s speed=1.17x    
frame=34978
fps=29.13
stream_0_0_q=23.0
bitrate=6209.8kbits/s
total_size=1086062640
out_time_us=1399160000
out_time_ms=1399160000
out_time=00:23:19.160000
dup_frames=0
drop_frames=0
speed=1.17x
progress=continue
frame=35103 fps= 29 q=23.0 size= 1065216KiB time=00:23:24.16 bitrate=6214.6kbits/s speed=1.16x    
frame=35103
fps=29.12
stream_0_0_q=23.0
bitrate=6214.6kbits/s
total_size=1090781232
out_time_us=1404160000
out_time_ms=1404160000
out_time=00:23:24.160000
dup_frames=0
drop_frames=0
speed=1.16x
progress=continue
frame=35239 fps= 29 q=23.0 size= 1071104KiB time=00:23:28.56 bitrate=6229.4kbits/s speed=1.16x    
frame=35239
fps=29.11
stream_0_0_q=23.0
bitrate=6229.4kbits/s
total_size=1096810544
out_time_us=1408560000
out_time_ms=1408560000
out_time=00:23:28.560000
dup_frames=0
drop_frames=0
speed=1.16x
progress=continue
